<?xml version="1.0" standalone="no"?>
<!DOCTYPE svg PUBLIC "-//W3C//DTD SVG 1.1//EN" "http://www.w3.org/Graphics/SVG/1.1/DTD/svg11.dtd" >
<svg xmlns="http://www.w3.org/2000/svg">
<metadata>Generated by IcoMoon</metadata>
<defs>
<font id="icomoon" horiz-adv-x="1024">
<font-face units-per-em="1024" ascent="896" descent="-128" />
<missing-glyph horiz-adv-x="1024" />
<glyph unicode="&#x20;" horiz-adv-x="400" d="" />
<glyph unicode="&#xe900;" glyph-name="technology-1" d="M256 96v-192h512v320h-512v-128zM320 160h384v-64h-384v64zM320 32h384v-64h-384v64zM768 672v192h-512v-320h512zM896 672h-64v-192h-640v192h-64c-64 0-128-64-128-128v-320c0-64 64-128 128-128h64v192h640v-192h64c64 0 128 64 128 128v320c0 64-64 128-128 128z" />
<glyph unicode="&#xe901;" glyph-name="technology" d="M517.627 651.537c172.542-1.693 280.633 9.042 295.232-182.202h210.405c0 296.267-258.385 336.201-511.114 336.201-252.749 0-511.114-39.934-511.114-336.201h208.771c16.153 194.889 136.711 183.875 307.819 182.202zM105.382 374.091c51.247 0 93.889-3.067 103.37 47.343 1.275 6.851 2.012 14.619 2.012 23.602h-210.763c0-74.988 47.184-70.945 105.382-70.945zM814.213 445.036h-1.972c0-9.042 0.777-16.83 2.231-23.602 9.998-46.487 52.581-43.599 103.649-43.599 58.477 0 105.88-3.844 105.88 67.2h-209.787zM711.42 496.104v29.796c0 13.325-15.356 14.161-34.317 14.161h-30.971c-18.941 0-34.297-0.837-34.297-14.161v-45.59h-219.089v45.59c0 13.325-15.356 14.161-34.297 14.161h-30.991c-18.941 0-34.297-0.837-34.297-14.161v-55.808c-49.912-51.864-213.233-272.646-219.168-299.375l0.080-178.358c0-16.471 13.404-29.876 29.876-29.876h796.686c16.471 0 29.876 13.404 29.876 29.876v179.254c-5.876 25.952-169.156 246.634-219.089 298.498v25.992zM381.951 146.717c-16.033 0-29.039 12.986-29.039 29.039s13.006 29.039 29.039 29.039 29.039-12.986 29.039-29.039-13.006-29.039-29.039-29.039zM381.951 246.303c-16.033 0-29.039 12.986-29.039 29.039s13.006 29.039 29.039 29.039 29.039-12.986 29.039-29.039-13.006-29.039-29.039-29.039zM381.951 345.869c-16.033 0-29.039 12.986-29.039 29.039 0 16.033 13.006 29.039 29.039 29.039s29.039-13.006 29.039-29.039c0-16.053-13.006-29.039-29.039-29.039zM501.454 146.717c-16.033 0-29.039 12.986-29.039 29.039s13.006 29.039 29.039 29.039c16.053 0 29.039-12.986 29.039-29.039s-12.986-29.039-29.039-29.039zM501.454 246.303c-16.033 0-29.039 12.986-29.039 29.039s13.006 29.039 29.039 29.039c16.053 0 29.039-12.986 29.039-29.039s-12.986-29.039-29.039-29.039zM501.454 345.869c-16.033 0-29.039 12.986-29.039 29.039 0 16.033 13.006 29.039 29.039 29.039 16.053 0 29.039-13.006 29.039-29.039 0-16.053-12.986-29.039-29.039-29.039zM620.957 146.717c-16.053 0-29.039 12.986-29.039 29.039s12.986 29.039 29.039 29.039 29.039-12.986 29.039-29.039-12.986-29.039-29.039-29.039zM620.957 246.303c-16.053 0-29.039 12.986-29.039 29.039s12.986 29.039 29.039 29.039 29.039-12.986 29.039-29.039-12.986-29.039-29.039-29.039zM620.957 345.869c-16.053 0-29.039 12.986-29.039 29.039 0 16.033 12.986 29.039 29.039 29.039s29.039-13.006 29.039-29.039c0-16.053-12.986-29.039-29.039-29.039z" />
<glyph unicode="&#xe902;" glyph-name="telephone-1" d="M1001.042 86.739l-158.141 158.158c-31.499 31.372-83.661 30.419-116.257-2.189l-79.672-79.654c-5.034 2.774-10.244 5.672-15.721 8.746-50.312 27.877-119.173 66.086-191.634 138.601-72.676 72.667-110.921 141.634-138.883 191.978-2.951 5.334-5.778 10.476-8.57 15.36l79.76 79.713c32.646 32.655 33.546 84.803 2.121 116.266l-158.141 158.176c-31.425 31.419-83.611 30.466-116.257-2.189l-44.569-44.825 1.218-1.209c-14.945-19.069-27.433-41.063-36.726-64.78-8.567-22.576-13.9-44.119-16.339-65.707-20.881-173.112 58.226-331.323 272.912-546.013 296.762-296.741 535.913-274.324 546.23-273.23 22.47 2.686 44.005 8.055 65.889 16.554 23.511 9.185 45.49 21.655 64.548 36.568l0.974-0.865 45.152 44.213c32.578 32.649 33.517 84.814 2.106 116.328z" />
<glyph unicode="&#xe903;" glyph-name="office" d="M0-128h512v1024h-512v-1024zM320 768h128v-128h-128v128zM320 512h128v-128h-128v128zM320 256h128v-128h-128v128zM64 768h128v-128h-128v128zM64 512h128v-128h-128v128zM64 256h128v-128h-128v128zM576 576h448v-64h-448zM576-128h128v256h192v-256h128v576h-448z" />
<glyph unicode="&#xe904;" glyph-name="computer" d="M862.775 111.826c-6.468 7.929-10.015 17.944-10.015 28.377v134.58c-1.461 0.417-2.712 0.626-4.173 1.043-7.929-9.807-16.066-20.031-25.247-31.298-13.354-16.483-30.88-26.081-49.868-27.959v-80.957h-638.474v407.288c0 0 0 0.209 0.209 0.209h355.96c-3.756 5.842-7.511 11.684-11.267 17.527-12.31 18.987-15.649 41.522-9.181 61.552v0.209h-335.512c-43.817 0-79.496-35.471-79.496-79.496v-401.863c0-10.224-3.547-20.239-10.015-28.377l-40.896-50.285c-3.13-3.756-4.799-8.555-4.799-13.354v-22.952c0-29.837 24.204-53.832 53.832-53.832h800.179c29.837 0 53.832 24.204 53.832 53.832v22.952c0 4.799-1.669 9.598-4.799 13.354l-40.27 49.45zM540.199 50.483c0-15.023-12.31-27.333-27.333-27.333h-117.262c-15.023 0-27.333 12.31-27.333 27.333v6.051h172.138v-6.051h-0.209zM717.345 569.817c0-12.33-9.996-22.326-22.326-22.326s-22.326 9.996-22.326 22.326c0 12.33 9.996 22.326 22.326 22.326s22.326-9.996 22.326-22.326zM859.854 479.053c0-12.33-9.996-22.326-22.326-22.326s-22.326 9.996-22.326 22.326c0 12.33 9.996 22.326 22.326 22.326s22.326-9.996 22.326-22.326zM1018.22 470.916c-11.059 17.109-22.326 34.428-33.593 51.328-2.712 3.964-2.504 6.468 0 10.224 11.059 16.692 21.908 33.384 32.758 50.285 12.728 19.822 6.051 39.435-16.066 47.573-18.779 6.886-37.349 14.188-56.127 21.074-3.964 1.461-5.425 3.756-5.634 7.929-0.835 20.448-2.087 40.896-3.13 61.135-1.043 21.7-18.153 34.010-39.227 28.377-19.822-5.216-39.435-10.433-59.048-16.275-4.59-1.252-6.886-0.209-9.598 3.13-12.519 15.858-25.456 31.506-38.183 47.155-13.98 17.109-34.845 17.318-48.825 0-12.519-15.44-25.247-31.089-37.557-46.947-3.338-4.382-6.468-5.008-11.476-3.756-19.196 5.425-38.601 10.433-52.58 14.188-26.916 6.468-42.774-4.59-44.234-26.499-1.461-20.657-2.295-41.313-3.13-61.97-0.209-4.382-1.669-6.26-5.634-7.929-19.405-7.303-38.601-14.606-58.005-22.326-20.031-7.929-26.29-27.542-14.606-45.695 11.059-17.109 22.326-34.428 33.593-51.328 2.504-3.756 2.504-6.468 0-10.224-11.476-17.318-22.952-35.053-34.010-52.58-10.641-17.109-3.964-36.931 14.814-44.026 19.405-7.511 39.018-15.023 58.631-22.326 4.173-1.461 5.425-3.547 5.634-7.929 0.835-19.822 3.13-39.435 2.921-59.257-0.209-20.239 17.527-37.766 41.313-30.254 18.987 6.051 38.601 10.641 57.797 16.066 3.964 1.043 6.051 0.417 8.763-2.712 12.728-16.066 25.664-31.924 38.601-47.781 14.188-17.318 34.636-17.318 48.825 0 12.936 15.858 25.664 31.715 38.392 47.781 2.504 3.13 4.59 4.173 8.555 2.921 20.031-5.634 39.852-10.85 59.883-16.066 20.657-5.425 37.766 7.094 38.809 28.168 1.043 20.657 2.295 41.313 3.13 61.97 0.209 4.799 2.295 6.677 6.26 8.137 18.987 7.094 37.766 14.397 56.545 21.7 20.657 8.763 27.125 28.585 15.44 46.738zM641.187 569.817c0 29.837 24.204 54.041 54.041 54.041s54.041-24.204 54.041-54.041c0-29.837-24.204-54.041-54.041-54.041-29.837 0.209-54.041 24.204-54.041 54.041zM705.451 430.646c-4.59-5.425-12.936-6.468-18.57-1.669-5.425 4.59-6.468 12.936-1.669 18.57l141.675 170.677c4.59 5.425 12.936 6.468 18.57 1.669 5.425-4.59 6.468-12.936 1.669-18.57l-141.675-170.677zM837.528 425.013c-29.837 0-54.041 24.204-54.041 54.041s24.204 54.041 54.041 54.041 54.041-24.204 54.041-54.041c-0.209-29.837-24.412-54.041-54.041-54.041z" />
<glyph unicode="&#xe905;" glyph-name="transport" d="M849.82 699.238c-10.708 0-19.911-9.37-19.911-19.911v-25.098c0-10.708 9.37-19.911 19.911-19.911h13.217l-244.119-245.793-5.189 18.74c-5.187 17.401-18.74 38.484-55.718 34.468l-143.393-6.693-97.213 90.52c-11.88 11.88-33.129 26.437-63.749 18.74l-253.656-68.099v-45.176h1.339l103.571 27.942 27.942-99.556-132.852-35.807v-211.156c14.557-33.131 51.869-50.532 86.337-41.164 37.145 10.708 59.733 46.517 53.208 85l256.335 68.934c11.88-35.803 51.869-57.056 89.014-46.513 37.145 10.708 59.733 46.513 53.208 84.997l73.119 19.911c17.401 5.187 30.62 17.401 25.098 38.484l-6.693 25.098 288.125 287.96h41.161v-172.675h65.088v236.758h-174.18zM76.967 103.074c-21.25-6.693-43.838 6.693-49.025 27.944-5.187 21.248 6.693 42.499 27.942 47.686 3.848 2.677 6.693 2.677 9.37 2.677 18.74 1.34 35.807-10.708 39.99-29.281 5.020-21.082-7.027-42.334-28.277-49.027zM176.69 372.796l-26.437 100.894 95.54 25.098c5.187 0 9.37 0 14.557 0 13.218-1.339 25.098-8.031 33.129-15.895l63.749-62.578-180.539-47.519zM475.357 212.003c-21.25-5.19-43.838 6.693-49.025 27.941s8.031 42.499 29.281 49.027c2.677-1.34 5.187-1.34 8.031 0 18.74 1.337 35.807-10.708 39.99-29.281 5.020-21.086-6.86-42.334-28.277-47.686zM787.409 397.894v-213.67c0-19.908 5.189-35.803 37.145-35.803h45.176c2.679-43.84 39.99-79.648 84.999-79.648 29.281 0 54.548 14.559 68.936 37.147v326.442c1.339 1.339-199.278 1.339-199.278 1.339-32.962 0-36.978-14.557-36.978-35.807zM954.729 201.293c25.098 0 45.176-19.911 45.176-45.176 0-25.098-19.909-46.517-45.176-46.517-25.265 0-46.515 21.251-46.515 46.517 1.506 23.925 21.417 45.176 46.515 45.176z" />
<glyph unicode="&#xe906;" glyph-name="social-network" d="M921.6 896h-819.2c-56.32 0-102.4-46.080-102.4-102.4v-819.2c0-56.32 46.080-102.4 102.4-102.4h819.2c56.32 0 102.4 46.080 102.4 102.4v819.2c0 56.32-46.080 102.4-102.4 102.4zM803.84 522.24c-5.12-235.52-153.6-399.36-378.88-409.6-92.16-5.12-158.72 25.6-220.16 61.44 66.56-10.242 153.6 15.358 199.68 56.32-66.56 5.12-107.52 40.96-128 97.28 20.48-5.12 40.96 0 56.32 0-61.44 20.48-102.4 56.32-107.52 138.24 15.36-10.24 35.84-15.36 56.32-15.36-46.080 25.6-76.8 122.88-40.96 184.32 66.56-71.68 148.48-133.12 281.6-143.36-35.84 143.36 158.722 220.16 235.522 122.88 35.84 5.12 61.44 20.48 87.040 30.72-10.24-35.84-30.72-56.32-56.32-76.8 25.6 5.12 51.2 10.24 71.68 20.48-5.122-25.6-30.722-46.080-56.322-66.56z" />
<glyph unicode="&#xe907;" glyph-name="black" d="M979.438 538.76l-281.99 26.665c-17.776 1.616-33.137 12.928-40.401 29.897l-101.002 244.829c-16.16 40.401-73.538 40.401-89.698 0l-100.194-244.829c-6.464-16.968-22.624-28.281-40.401-29.897l-281.998-26.665c-42.017-4.040-58.985-56.561-27.473-84.842l212.508-186.652c13.736-12.12 19.392-29.897 15.352-47.673l-63.833-261.789c-9.696-41.217 34.745-75.146 71.914-53.337l235.133 138.179c15.352 8.888 33.937 8.888 49.289 0l235.141-138.179c37.169-21.808 81.61 11.312 71.905 53.337l-63.025 261.789c-4.040 17.776 1.616 35.553 15.352 47.673l212.508 186.652c30.705 28.281 12.928 80.802-29.089 84.842z" />
<glyph unicode="&#xe908;" glyph-name="road" d="M530.573 777.837c0.877-21.783 1.749-43.567 2.628-65.35-16.96 0-25.437 0-42.395 0 0.875 21.783 1.752 43.567 2.624 65.35-34.391 0-68.779 0-103.17 0-69.134-262.559-138.28-525.111-207.412-787.674 92.98 0 185.959 0 278.937 0 0.875 21.786 1.749 43.569 2.626 65.35 31.728 0 63.457 0 95.183 0 0.881-21.783 1.754-43.565 2.626-65.35 92.98 0 185.957 0 278.937 0-69.134 262.559-138.278 525.113-207.412 787.674-34.388 0-68.779 0-103.172 0zM486.869 614.639c16.754 0 33.507 0.009 50.263 0.004 2.433-60.572 4.863-121.149 7.301-181.719-21.622 0-43.241 0-64.865 0 2.442 60.568 4.87 121.142 7.301 181.714zM468.339 153.363c2.431 60.57 4.868 121.142 7.301 181.712 24.241 0 48.482 0.004 72.721 0.004 2.435-60.57 4.87-121.147 7.301-181.717-29.105 0-58.216 0-87.323 0zM701.37 777.837c-14.049 0-21.075 0-35.124 0 87.604-262.559 175.187-525.115 262.795-787.674 31.652 0 63.306 0 94.958 0-107.539 262.563-215.084 525.115-322.63 787.674zM322.63 777.837c-107.545-262.561-215.093-525.111-322.63-787.674 31.654 0 63.306 0 94.961 0 87.597 262.559 175.191 525.113 262.793 787.674-14.049 0-21.075 0-35.124 0z" />
<glyph unicode="&#xe909;" glyph-name="hands" d="M979.834 199.843c20.985 26.767 31.050 55.461 29.765 85.012-1.285 32.549-15.846 58.031-27.838 73.663 13.919 34.69 19.272 89.295-27.195 131.694-34.048 31.050-91.864 44.969-171.951 41.114-56.318-2.57-103.428-13.062-105.355-13.491h-0.214c-10.707-1.927-22.056-4.283-33.619-6.852-0.857 13.705 1.499 47.752 26.767 124.413 29.979 91.222 28.266 161.031-5.568 207.712-35.547 49.037-92.293 52.892-108.995 52.892-16.060 0-30.836-6.638-41.328-18.844-23.769-27.624-20.985-78.588-17.987-102.143-28.266-75.804-107.496-261.675-174.521-313.281-1.285-0.857-2.355-1.927-3.426-2.998-19.701-20.771-32.977-43.256-41.971-62.956-12.634 6.852-26.981 10.707-42.399 10.707h-130.623c-49.251 0-89.081-40.043-89.081-89.081v-347.972c0-49.251 40.043-89.081 89.081-89.081h130.623c19.058 0 36.831 5.996 51.393 16.274l50.322-5.996c7.709-1.071 144.756-18.416 285.444-15.632 25.482-1.927 49.465-2.998 71.736-2.998 38.33 0 71.736 2.998 99.573 8.994 65.526 13.919 110.28 41.757 132.979 82.657 17.345 31.264 17.345 62.314 14.561 82.014 42.613 38.545 50.108 81.158 48.609 111.137-0.857 17.345-4.711 32.12-8.78 43.041zM103.374-61.832c-17.345 0-31.264 14.133-31.264 31.264v348.186c0 17.345 14.133 31.264 31.264 31.264h130.623c17.345 0 31.264-14.133 31.264-31.264v-347.972c0-17.345-14.133-31.264-31.264-31.264h-130.623v-0.214zM925.015 224.897c-8.994-9.422-10.707-23.769-3.854-34.904 0-0.214 8.78-15.204 9.85-35.761 1.499-28.052-11.992-52.892-40.258-74.091-10.064-7.709-14.133-20.985-9.85-32.977 0-0.214 9.208-28.48-5.782-55.247-14.347-25.696-46.253-44.112-94.648-54.391-38.759-8.351-91.436-9.85-156.105-4.711-0.857 0-1.927 0-2.998 0-137.69-2.998-276.878 14.99-278.377 15.204h-0.214l-21.628 2.57c1.285 5.996 1.927 12.42 1.927 18.844v348.186c0 9.208-1.499 18.202-4.069 26.553 3.854 14.347 14.561 46.253 39.829 73.449 96.147 76.233 190.153 333.41 194.222 344.545 1.713 4.497 2.141 9.422 1.285 14.347-3.64 23.983-2.355 53.32 2.784 62.1 11.349-0.214 41.971-3.426 60.386-28.908 21.842-30.193 20.985-84.156-2.57-155.677-35.975-108.995-38.973-166.384-10.493-191.652 14.133-12.634 32.977-13.276 46.682-8.351 13.062 2.998 25.482 5.568 37.26 7.495 0.857 0.214 1.927 0.428 2.784 0.642 65.74 14.347 183.515 23.127 224.415-14.133 34.69-31.692 10.064-73.663 7.281-78.16-7.923-11.992-5.568-27.624 5.139-37.26 0.214-0.214 22.698-21.414 23.769-49.894 0.857-19.058-8.137-38.545-26.767-57.817z" />
<glyph unicode="&#xe90a;" glyph-name="cellphone" d="M951.281 425.504h-115.684c-30.163 0-54.627-24.464-54.627-54.729v-5.933c0-30.295 24.464-54.773 54.671-54.773h115.64c30.222 0 54.758 24.581 54.758 54.773l-0.058 6.006c0.058 30.192-24.478 54.656-54.7 54.656zM951.339 562.042h-24.098v264.776c0 38.055-31.128 69.182-69.197 69.182h-456.525c-38.055 0-69.182-31.142-69.182-69.182v-189.967c-92.083-52.055-187.059-106.433-187.263-106.565-51.558-21.219-127.098-89.686-127.098-251.36 0-14.439 0.95-27.767 2.28-40.641 0.424-3.77 0.891-7.395 1.403-11.034 1.33-9.455 2.996-18.501 4.983-27.094 0.716-3.069 1.271-6.269 2.046-9.207 2.674-9.937 5.773-19.261 9.251-28.132 1.754-4.399 3.653-8.403 5.568-12.524 2.046-4.34 4.107-8.608 6.313-12.597 2.557-4.808 5.115-9.441 7.921-13.839 0.672-1.023 1.403-1.958 2.090-2.996 66.581-100.646 189.412-101.099 189.412-101.099h83.095v-78.608c0-38.011 31.128-69.139 69.182-69.139h456.511c38.069 0 69.197 31.142 69.197 69.139v95.882h10.551v0.058h13.459c30.266 0 54.802 24.478 54.744 54.744l0.058 5.962c-0.058 30.222-24.537 54.627-54.758 54.627h-115.699c-30.222 0-54.627-24.464-54.627-54.671v-6.065c0-30.134 24.464-54.7 54.671-54.7h43.462v-37.032h-498.628v496.743c25.048 15.885 48.241 31.172 61.466 41.416 67.005 51.821 130.605 93.091 139.213 130.517 11.209 48.562-26.071 89.481-90.738 55.884-20.372-10.581-62.182-33.773-109.941-60.589v122.436l498.628-0.073v-224.222h-29.856v-0.058h-13.576c-30.236 0-54.773-24.464-54.773-54.758v-5.933c0-30.28 24.537-54.685 54.7-54.685h115.728c30.192 0 54.671 24.464 54.671 54.685v6.094c0.058 30.090-24.405 54.627-54.642 54.627zM629.715-24.329c19.174 0 34.635-15.476 34.635-34.606 0-19.174-15.476-34.591-34.635-34.591-19.1 0-34.533 15.462-34.533 34.591 0.029 19.071 15.505 34.606 34.533 34.606zM702.829 829.39h-146.081c-4.589 0-8.388 3.727-8.388 8.33 0 4.676 3.8 8.403 8.388 8.403h146.081c4.589 0 8.33-3.712 8.33-8.403 0-4.589-3.741-8.33-8.33-8.33zM951.281 288.965h-115.684c-30.163 0-54.7-24.537-54.7-54.744v-5.992c0-30.236 24.478-54.7 54.7-54.7h115.655c30.266 0 54.671 24.464 54.744 54.7v5.992c-0.015 30.207-24.42 54.744-54.715 54.744z" />
<glyph unicode="&#xe90b;" glyph-name="check" d="M0 896v-1024h1024v1024h-1024zM438.7 176.056l-197.682 197.682 47.741 47.741 149.943-149.941 296.541 296.539 47.741-47.741-344.285-344.28z" />
<glyph unicode="&#xe90c;" glyph-name="arrows" d="M994.019 555.765c-45.9 128.751-139.189 231.923-262.685 290.51-123.492 58.591-262.414 65.578-391.165 19.678s-231.926-139.189-290.513-262.685c-58.584-123.496-65.571-262.414-19.675-391.169 3.863-10.837 15.784-16.481 26.614-12.625 10.837 3.863 16.488 15.777 12.625 26.614-42.165 118.271-35.747 245.884 18.071 359.327s148.593 199.141 266.864 241.302c118.271 42.161 245.887 35.74 359.327-18.075 113.446-53.818 199.141-148.593 241.305-266.864 42.161-118.271 35.743-245.884-18.075-359.327s-148.593-199.141-266.864-241.302c-132.562-47.254-277.982-32.952-398.965 39.239-9.886 5.898-22.664 2.666-28.558-7.213s-2.666-22.664 7.213-28.558c80.557-48.069 171.048-72.559 262.22-72.555 57.879 0 116.043 9.876 172.075 29.849 128.755 45.9 231.923 139.189 290.51 262.685 58.587 123.499 65.575 262.417 19.675 391.169zM741.102 383.932c0 11.5-9.327 20.827-20.827 20.827h-518.705c-11.504 0-20.827-9.327-20.827-20.827s9.324-20.827 20.827-20.827h518.705c11.5 0 20.827 9.327 20.827 20.827zM575.133 166.089c-8.137-8.133-8.137-21.32 0-29.453 4.065-4.065 9.397-6.099 14.725-6.099s10.66 2.034 14.725 6.099l232.572 232.572c8.137 8.133 8.137 21.32 0 29.453l-232.572 232.572c-8.13 8.133-21.324 8.133-29.45 0-8.137-8.133-8.137-21.32 0-29.453l217.843-217.843-217.843-217.847z" />
<glyph unicode="&#xe90d;" glyph-name="money" d="M512 896c-282.773 0-512-229.227-512-512s229.227-512 512-512 512 229.227 512 512-229.227 512-512 512zM117.056 521.291l259.755-116.267 81.365-35.669 60.341-27.403 49.397-21.045c9.141-7.936 13.707-18.272 13.707-31.083 0-18.304-6.272-31.403-18.752-39.307-12.501-7.936-27.584-11.904-45.259-11.904-42.677 0-80.768 15.541-114.293 46.624l-70.389-71.307c46.912-40.224 98.741-60.672 155.403-61.248v-78.656h59.445v78.656c35.328 3.019 65.984 14.773 91.893 35.2 25.877 20.416 42.197 46.763 48.896 79.083l189.792-84.544c-71.168-129.077-208.523-216.555-366.368-216.555-230.923 0-418.123 187.211-418.123 418.133 0 48.117 8.224 94.283 23.189 137.291zM656.597 391.307l-82.304 36.576-109.717 49.376c-3.051 4.256-4.576 8.523-4.576 12.779 0 14.624 6.251 25.003 18.752 31.083 12.48 6.112 26.656 9.163 42.496 9.163 29.888 0 59.136-10.080 87.776-30.165l66.752 68.565c-38.4 29.269-81.067 45.099-128 47.541v78.613h-59.445v-78.613c-31.701-1.824-59.435-10.859-83.2-26.965-23.765-16.171-39.925-37.632-48.448-64.459l-194.965 87.435c74.635 114.293 203.584 189.899 350.272 189.899 230.933 0 418.133-187.211 418.133-418.133 0-37.483-5.003-73.771-14.251-108.331l-259.275 115.637z" />
<glyph unicode="&#xe90e;" glyph-name="man" d="M315.849 666.096h315.951c8.302 0 15.030 6.73 15.030 15.032s-6.728 15.032-15.030 15.032h-315.951c-8.302 0-15.032-6.73-15.032-15.032s6.73-15.032 15.032-15.032zM33.278 519.12h315.949c8.302 0 15.032 6.73 15.032 15.032s-6.73 15.030-15.032 15.030h-315.949c-8.302 0-15.032-6.728-15.032-15.030s6.73-15.032 15.032-15.032zM118.096 364.459c0-8.302 6.73-15.034 15.032-15.034h315.949c8.302 0 15.032 6.732 15.032 15.034s-6.73 15.030-15.032 15.030h-315.949c-8.302 0-15.032-6.728-15.032-15.030zM298.915 189.753h-283.882c-8.302 0-15.032-6.728-15.032-15.030s6.73-15.032 15.032-15.032h283.882c8.302 0 15.032 6.73 15.032 15.032s-6.73 15.030-15.032 15.030zM809.714 571.849c45.342 0 82.101 36.763 82.101 82.107s-36.761 82.105-82.101 82.105c-45.353 0-82.118-36.763-82.118-82.105-0.002-45.344 36.763-82.107 82.118-82.107zM944.769 595.492c-47.145-66.038-110.276-73.685-178.21-33.356-4.624 2.742-25.142 14.046-29.684 16.745-109.285 64.877-218.443 39.435-291.647-63.080-31.108-43.602 40.84-84.931 71.599-41.837 37.823 52.966 85.917 68.293 138.516 51.516-26.932-46.749-50.479-93.214-83.705-159.229-33.234-66.015-106.611-118.734-177.116-77.502-50.874 29.735-96.751-43.35-46.031-72.993 96.256-56.256 209.118-21.712 266.734 51.415 1.998-1.068 4.11-2.032 6.428-2.842 47.068-16.399 108.767-60.057 127.567-75.531 18.794-15.473 51.086-94.297 70.262-133.902 23.263-48.056 98.391-13.055 75.041 35.205-21.737 44.935-58.223 134.618-86.681 157.308-22.829 18.198-67.149 52.066-104.738 71.28 25.432 49.259 51.911 97.988 79.786 145.874 88.854-27.224 173.31 4.845 233.46 89.102 31.133 43.596-40.798 84.924-71.58 41.826z" />
<glyph unicode="&#xe90f;" glyph-name="business" d="M984.679 329.724l-397.404 397.625c-20.986 20.986-49.040 32.694-78.641 32.694-2.43 0-4.86 0-7.29-0.221l-287.395-18.998c-31.147-1.988-56.33-27.171-58.318-58.318l-6.848-102.057c-14.58 8.394-28.496 18.998-41.088 31.589-30.706 30.706-49.703 68.922-53.679 107.801-3.755 36.891 6.848 69.805 29.822 92.779 48.82 48.82 138.727 37.995 200.801-23.858 10.382-10.382 27.171-10.382 37.553 0s10.382 27.171 0 37.553c-83.060 82.397-206.765 93-276.129 23.637-34.461-34.461-50.366-82.397-45.064-135.634 5.081-51.029 29.601-100.732 68.922-140.052 22.090-22.090 47.715-39.542 74.886-51.47l-8.394-127.903c-2.209-32.031 9.72-63.399 32.473-86.152l397.625-397.625c25.183-25.183 58.539-38.879 94.105-38.879v0c35.565 0 68.922 13.917 94.105 38.879l230.402 230.402c25.183 25.183 38.879 58.539 38.879 94.105-0.221 35.786-14.138 69.143-39.321 94.105zM947.347 179.289l-230.623-230.623c-15.021-15.021-35.124-23.416-56.551-23.416v0c-21.428 0-41.53 8.394-56.551 23.416l-397.625 397.625c-11.929 11.929-18.114 28.276-17.010 45.064l7.732 115.753c4.418-0.663 8.836-1.325 13.254-1.767 6.627-0.663 13.254-1.105 19.66-1.105 45.285 0 85.71 15.905 115.753 45.948 10.382 10.382 10.382 27.171 0 37.553s-27.171 10.382-37.553 0c-22.974-22.974-55.888-33.577-92.779-29.822-5.081 0.442-9.941 1.325-14.8 2.209l7.953 118.404c0.221 4.86 4.197 8.615 9.057 9.057l287.395 18.998c1.325 0 2.651 0.221 3.976 0.221 15.463 0 30.485-6.185 41.309-17.010l397.404-397.404c15.021-15.021 23.416-35.124 23.416-56.551s-8.394-41.53-23.416-56.551z" />
<glyph unicode="&#xe910;" glyph-name="favorite" d="M941.29 750.55c-53.62 53.62-124.608 82.927-200.371 82.927s-146.968-29.524-200.588-83.144l-28.004-28.004-28.438 28.438c-53.62 53.62-125.042 83.361-200.805 83.361-75.546 0-146.751-29.524-200.154-82.927-53.62-53.62-83.144-124.825-82.927-200.588 0-75.763 29.741-146.751 83.361-200.371l407.689-407.689c5.644-5.644 13.242-8.683 20.623-8.683s14.979 2.822 20.623 8.466l408.557 407.038c53.62 53.62 83.144 124.825 83.144 200.588 0.217 75.763-29.090 146.968-82.71 200.588zM899.609 390.837l-387.934-386.414-387.066 387.066c-42.549 42.549-65.994 98.992-65.994 159.125s23.228 116.576 65.777 158.907c42.332 42.332 98.774 65.777 158.69 65.777 60.133 0 116.793-23.445 159.342-65.994l49.062-49.062c11.506-11.506 29.958-11.506 41.464 0l48.627 48.627c42.549 42.549 99.209 65.994 159.125 65.994s116.358-23.445 158.907-65.777c42.549-42.549 65.777-98.992 65.777-159.125 0.217-60.133-23.228-116.576-65.777-159.125z" />
<glyph unicode="&#xe911;" glyph-name="null" d="M727.42 896h-430.84c-41.233 0-74.518-33.434-74.518-74.593v-874.889c0-41.121 33.285-74.518 74.518-74.518h430.84c41.159 0 74.518 33.397 74.518 74.518v874.889c0 41.159-33.36 74.593-74.518 74.593zM405.689 850.7h212.696c5.373 0 9.739-8.023 9.739-17.949s-4.366-17.986-9.739-17.986h-212.696c-5.411 0-9.702 8.060-9.702 17.986s4.291 17.949 9.702 17.949zM512.037-54.377c-26.232 0-47.577 21.344-47.577 47.614s21.344 47.539 47.577 47.539c26.158 0 47.502-21.27 47.502-47.539s-21.344-47.614-47.502-47.614zM746.115 108.652h-468.192v661.484h468.192v-661.484z" />
<glyph unicode="&#xe912;" glyph-name="telephone2" d="M604.696 890.344c-107.234 0-205.174-40.48-279.397-106.937 16.463-26.178 25.816-56.636 26.695-88.074l0.007-0.183c0.374-14.166 1.22-28.336 2.432-42.484 56.298 77.359 147.479 127.778 250.262 127.778 170.606 0 309.404-138.797 309.404-309.404 0-168.808-135.903-306.381-304.037-309.268 15.353-12.829 31.204-25.057 47.536-36.538l0.073-0.055 0.077-0.051c22.237-15.686 40.348-36.253 53.056-59.775 179.992 47.114 313.191 211.13 313.191 405.688 0.004 231.205-188.091 419.304-419.301 419.304zM594.402 35.323c-47.902 38.238-77.788 63.702-120.557 103.321-12.584 11.657-27.962 18.918-43.755 18.918-12.085 0-24.021-3.85-33.846-11.913-10.14-8.536-20.28-17.071-30.424-25.603-82.422 97.951-143.626 212.090-179.603 334.944 12.719 3.722 25.442 7.448 38.161 11.17 28.032 8.583 41.22 38.509 37.106 68.508-8.95 65.296-13.811 97.735-19.35 157.59-2.839 30.681-23.259 57.332-52.525 58.925-4.565 0.443-9.125 0.663-13.65 0.663-108.838 0-203.602-126.151-168.547-280.481 43.62-191.125 138.050-367.226 273.107-509.32 55.324-58.086 123.1-84.389 184.311-84.389 64.574 0 121.847 29.248 149.586 81.308 14.87 25.259 4.070 57.134-20.013 76.359zM478.599 463.281c-28.984-26.893-47.95-48.038-57.965-64.633-7.070-11.704-12.228-24.079-15.338-36.78-1.462-5.979-0.117-12.184 3.689-17.031 3.803-4.839 9.51-7.616 15.665-7.616h138.321c16.947 0 30.736 13.789 30.736 30.736s-13.789 30.736-30.736 30.736h-62.464c0.509 0.601 1.033 1.202 1.568 1.806 4.081 4.594 14.075 14.192 29.699 28.519 16.386 15.038 27.45 26.299 33.82 34.428 9.602 12.221 16.745 24.153 21.225 35.458 4.568 11.521 6.887 23.804 6.887 36.513 0 22.801-8.257 42.154-24.541 57.533-16.177 15.254-38.447 22.984-66.201 22.984-25.219 0-46.638-6.601-63.658-19.621-10.268-7.862-18.174-18.753-23.5-32.38-3.597-9.206-2.667-19.738 2.491-28.168 5.158-8.433 14.111-14.056 23.947-15.038 1.095-0.11 2.187-0.165 3.264-0.165 13.844 0 26.189 8.803 30.725 21.903 1.421 4.107 3.301 7.371 5.594 9.708 4.828 4.92 11.331 7.316 19.885 7.316 8.693 0 15.188-2.264 19.848-6.92 4.649-4.649 6.909-11.43 6.909-20.735 0-8.642-3.088-17.654-9.177-26.794-3.264-4.784-13.020-15.976-40.693-41.759zM755.513 615.933h-23.105c-6.583 0-12.73-3.246-16.445-8.682l-106.853-156.418c-3.118-4.565-4.766-9.902-4.766-15.43v-25.347c0-10.979 8.935-19.914 19.914-19.914h87.719v-21.2c0-17.493 14.232-31.725 31.725-31.725s31.725 14.232 31.725 31.725v21.2h3.169c16.254 0 29.479 13.225 29.479 29.479s-13.225 29.479-29.479 29.479h-3.169v146.919c0 10.979-8.935 19.914-19.914 19.914zM711.981 449.1h-39.374l39.374 58.533v-58.533z" />
<glyph unicode="&#xe913;" glyph-name="clock" d="M512 896c-282.317 0-512-229.683-512-512s229.683-512 512-512 512 229.683 512 512-229.683 512-512 512zM512-19.055c-222.243 0-403.066 180.802-403.066 403.055s180.823 403.055 403.066 403.055 403.066-180.802 403.066-403.055-180.823-403.055-403.066-403.055zM778.834 399.809h-230.094v276.657c0 23.281-18.876 42.157-42.157 42.157s-42.157-18.876-42.157-42.157v-318.814c0-23.281 18.876-42.157 42.157-42.157h272.252c23.281 0 42.157 18.876 42.157 42.157s-18.876 42.157-42.157 42.157z" />
<glyph unicode="&#xe914;" glyph-name="null-1" d="M469.071-74.082c-17.644-1.378-32.847-1.103-36.313 0.512-2.836 1.339 3.269 7.719 10.87 13.982 8.822 7.286 0.788 14.73-3.466 18.511-14.257 12.682-27.806 26.466-40.566 41.157-3.151 3.623-10.555 10.988-24.694 10.752-22.449-0.394-50.846-1.378-54.43 0.315-2.599 1.221 12.367 13.706 26.978 25.442 12.682 10.201 7.562 23.316 3.899 29.342-11.776 19.338-22.37 39.7-31.862 60.967-1.969 4.411-7.956 12.8-21.543 13.036-21.307 0.315-45.529-1.142-48.837 0.394-2.599 1.26 16.187 18.983 35.131 34.698 4.372 3.623 11.303 12.052 7.129 29.145-5.947 24.615-12.564 49.467-16.62 75.303-0.985 6.302-6.302 18.983-20.441 18.629-19.338-0.591-38.873-0.827-41.826 0.551-2.56 1.221 16.778 18.55 38.046 34.383 5.75 4.214 14.809 7.326 16.502 29.46 0.473 6.262-0.394 12.564-0.394 18.905 0 21.307 0.748 42.299 3.19 62.897 2.284 19.102-9.216 22.961-15.557 22.646-19.495-0.985-39.266-1.969-42.142-0.591-2.836 1.339 25.324 21.622 52.539 38.361 5.474 3.308 14.848 9.728 19.968 26.978 7.089 23.828 13.115 47.655 21.977 70.144 7.995 20.322-8.35 23.71-16.62 23.552-20.992-0.394-38.085-1.497-41.433 0.039-3.151 1.497 32.847 22.252 66.402 36.194 7.798 3.269 22.016 9.57 35.367 30.917 10.082 16.069 21.189 31.232 31.626 46.553 10.279 15.045-1.063 17.054-7.877 17.054-25.836 0-48.325-2.009-52.224-0.118-3.623 1.654 53.524 23.67 87.867 32.335 7.483 1.89 17.92 4.647 31.665 15.951 11.697 9.649 22.764 20.007 35.013 28.593 10.87 7.641 2.048 9.216-2.914 9.295-28.514 0.394-54.469-2.087-58.722-0.079-4.096 1.93 72.822 15.833 103.070 17.92 26.585 15.124 71.916 27.49 101.258 35.958-7.601 0-14.021-0.039-16.502-0.236h-170.693c-9.61-1.221-50.688 0.551-58.132 0-19.338-2.087-32.689-4.057-51.239-11.5-12.209-4.923-16.187-20.638-7.877-23.985 9.216-3.702 44.308-15.872 40.015-18.038-3.545-1.772-49.94 0-79.045 2.009-11.579 0.827-27.648 1.851-34.422-3.072-17.25-12.524-11.894-9.807-27.963-25.994-6.38-6.42-7.995-20.283 1.221-24.615 8.862-4.096 51.83-32.807 46.080-35.682-4.923-2.481-64.827-6.695-79.478-5.317-14.494 1.339-22.134 0.512-27.806-7.562-14.060-20.047-15.557-27.136-27.175-50.649-4.608-9.295-4.214-25.994 2.796-29.578 7.010-3.545 40.094-19.298 60.258-36.116-22.764 1.851-66.796-7.404-76.642-7.404s-17.684-0.512-21.15-10.91c-8.862-26.388-10.476-36.391-16.148-64.236-2.206-11.146 1.812-22.449 10.437-27.372s73.886-49.152 67.23-48.798c-11.067 0.63-68.214-12.958-76.839-13.115s-14.257-6.892-15.202-18.235c-1.772-21.228-0.945-21.228-0.945-42.929 0.039-7.798 0.158-15.596 0.394-23.276 0.354-11.303 10.476-23.591 19.929-28.042 12.918-6.144 79.202-38.715 73.295-41.708-4.884-2.442-64.827-9.846-70.971-10.043-13.942-0.433-15.636-14.375-14.021-25.758 4.096-28.554 4.411-33.871 11.815-61.164 2.166-8.192 9.374-15.596 16.778-18.078s101.1-40.724 95.153-43.717c-4.923-2.481-61.086-13.194-69.947-13.588-11.776-0.63-10.555-17.369-5.159-29.538 10.831-24.497 5.75-17.014 18.786-38.833 2.678-4.608 14.73-11.894 18.471-12.682 7.404-1.654 113.979-31.586 108.032-34.54-4.923-2.481-61.873-5.238-72.428-5.829s-9.177-16.384-3.151-23.591c15.321-18.235 11.697-15.163 28.278-29.578 9.413-8.192 31.35-7.522 32.807-8.625 21.937-3.466 114.215-15.714 108.623-18.55-4.923-2.481-38.951-6.223-71.404-10.082-10.279 0.473-2.009-13.824 5.356-17.447 18.353-9.255 37.337-16.148 56.517-20.48 0.748-0.158 1.418-0.236 2.087-0.236 6.853 0 49.782-4.096 57.344-4.096 9.728 0 141.47-0.709 205.942-1.024-37.573 10.87-87.71 27.412-122.447 48.798-2.914 1.772-10.398 5.829-20.874 4.962zM962.914 431.34c-0.709 11.618-6.695 19.929-15.163 19.18-0.197-0.039-0.394-0.473-0.63-0.512-1.221 14.178-2.718 28.239-4.844 42.063 0.236 0.039 0.394 0 0.551 0.079 7.404 3.033 11.855 14.651 9.846 25.915-5.041 28.199-11.815 56.044-20.007 82.668-3.151 10.673-20.007 15.084-20.007 15.084s-7.956 19.535-12.958 31.508c0.158 0.197 0.394 0.118 0.551 0.276 6.302 6.656 7.916 19.81 3.505 29.381-11.028 24.064-23.591 46.828-37.179 67.702-5.396 8.271-25.718 7.404-25.876 7.089-1.851 3.072-8.271 11.225-15.714 20.086 0.197 0.354 0.433 0.158 0.591 0.512 4.529 9.492 3.033 22.725-3.19 29.499-15.872 17.093-32.689 32.138-50.058 44.78-7.010 5.002-37.415 0.551-37.415 0.551l-7.759 3.938c0.118 0.315 0.315 0.394 0.354 0.63 2.127 11.225-2.206 22.922-9.57 26.112-18.629 7.916-37.809 13.47-57.186 16.423-5.632 1.103-25.758 1.615-41.039 1.694-29.735-10.24-58.368-24.3-85.465-41.945 26.151-3.111-32.965-44.702-28.436-20.322-17.093-13.312-33.359-28.16-48.719-44.465 25.049-2.402-21.543-61.479-29.184-34.107-19.653-25.442-37.297-53.563-52.618-84.165 22.764 6.814-4.687-68.096-20.756-46.986-12.721-32.571-22.843-67.505-30.090-104.645 21.189 7.798 11.185-60.455-7.916-50.649-3.308-28.002-5.041-57.147-5.041-87.237 0-6.262 0.079-12.485 0.236-18.668 20.598 8.665 30.602-53.76 3.19-54.311 3.663-37.612 10.122-73.216 19.023-106.654 12.524 12.327 45.017-41.826 15.872-50.412 10.91-29.854 23.946-57.738 38.833-83.535 7.719 14.769 46.868-33.516 24.537-38.361 17.329-24.576 36.549-46.789 57.186-66.639 3.426 14.060 44.229-16.738 28.239-24.93 35.249-28.436 73.886-50.452 114.609-65.812 20.598-0.079 34.225-0.158 34.225-0.158 20.756 0.748 30.799 3.072 39.424 5.553 7.562 2.206 22.607 25.639 22.607 25.639s27.254 1.3 32.886 1.3c1.694 0 3.387 0.473 5.041 1.418 17.959 10.516 35.486 23.473 52.185 38.597 6.617 5.947 8.743 18.944 4.766 28.948-0.118 0.236-0.315 0.236-0.354 0.473 7.838 7.838 9.413 9.767 16.896 18.59 0.079-0.236 12.761-1.575 16.699-1.575 3.19 0 6.498 1.694 9.058 5.12 14.69 19.102 28.396 40.251 40.684 62.976 4.844 9.019 4.057 22.252-1.89 29.696-0.236 0.276-0.512 0.118-0.709 0.354 5.632 11.422 9.728 19.062 14.809 31.271 0.158-0.197 6.262 0.551 8.625 0.551 4.844 0 9.452 3.86 12.091 10.673 9.61 25.442 17.723 52.342 24.3 79.951 2.599 10.988-1.221 23.079-8.468 27.057-0.118 0.039-0.236-0.079-0.354-0.039 2.796 13.548 5.041 27.372 7.050 41.354 0.197-0.039 0.236-0.354 0.394-0.394 0.827-0.197 1.654-0.276 2.402-0.276 6.735 0 12.603 7.286 13.785 17.526 3.269 28.79 4.962 58.329 4.962 87.788-0.039 15.754-0.512 31.39-1.418 46.789zM649.334 58.565c-107.323 0-194.324 145.684-194.324 325.317 0 179.712 87.001 325.356 194.324 325.356 107.362 0 194.284-145.644 194.284-325.356 0-179.594-86.922-325.317-194.284-325.317z" />
<glyph unicode="&#xe915;" glyph-name="people-1" d="M954.169 514.906l-38.013 200.319c-2.158 11.367-12.092 19.594-23.661 19.594h-97.649l-16.342 72.831c-2.332 10.39-11.556 17.773-22.204 17.773h-111.26c-10.648 0-19.872-7.383-22.204-17.773l-14.217-63.358h27.684c38.121 0 70.402-24.217 82.742-57.64h153.506l30.872-162.703h-405.509l8.346 43.98h-49.029l-10.061-53.023c-41.042-17.405-69.831-58.065-69.831-105.453v-95.619c0-23.666 19.186-42.852 42.852-42.852h14.052v-49.245c0-31.212 25.304-56.515 56.515-56.515s56.515 25.304 56.515 56.515v49.245h306.795v-49.245c0-31.212 25.304-56.515 56.515-56.515s56.515 25.304 56.515 56.515v49.245h14.052c23.666 0 42.852 19.186 42.852 42.852v95.619c-0.002 47.386-28.793 88.049-69.833 105.453zM489.142 336.375c-29.646 0-53.354 24.102-53.354 53.354 0 29.466 23.886 53.354 53.354 53.354 29.336 0 53.131-23.677 53.343-52.962 0-0.13 0.011-0.26 0.011-0.39-0.002-29.468-23.888-53.356-53.354-53.356zM912.195 336.375c-29.466 0-53.354 23.886-53.354 53.354 0 0.13 0.009 0.258 0.009 0.39 0.209 29.285 24.007 52.964 53.343 52.964 29.466 0 53.354-23.886 53.354-53.354 0.002-29.276-23.73-53.354-53.352-53.354zM310.042 616.003h326.261c22.151 0 40.105 17.958 40.105 40.107s-17.956 40.107-40.105 40.107c-24.55 0-511.708 0-539.913 0-52.071 0-94.649-42.362-94.911-94.435l-1.479-294.648c-0.112-22.149 17.755-40.195 39.904-40.308 0.071 0 0.139 0 0.207 0 22.056 0 39.992 17.824 40.1 39.906l1.479 294.644c0 0 0 0.002 0 0.004 0.024 4.387 3.593 7.927 7.978 7.914 4.387-0.013 7.934-3.571 7.934-7.958l0.020-674.159c0-26.58 21.547-48.129 48.127-48.129s48.127 21.547 48.127 48.129v374.298c0 5.738 4.652 10.39 10.39 10.39s10.39-4.652 10.39-10.39v-374.3c0-26.58 21.547-48.129 48.127-48.129s48.127 21.547 48.127 48.129l-0.869 688.828zM161.651 734.461c12.462-7.456 27.032-11.75 42.609-11.75 21.512 0 41.114 8.172 55.874 21.58 16.739 15.205 27.248 37.146 27.248 61.542 0 45.907-37.215 83.122-83.122 83.122s-83.122-37.215-83.122-83.122c0-30.33 16.25-56.855 40.513-71.372z" />
<glyph unicode="&#xe916;" glyph-name="shape" d="M535.029 884.61c-10.358 15.184-35.79 15.184-46.078 0-13.237-19.643-324.749-481.682-324.749-664.821 0-191.719 156.089-347.778 347.778-347.778 191.719 0 347.788 156.069 347.788 347.778 0.020 183.139-311.512 645.228-324.739 664.821zM511.99-72.349c-161.084 0-292.127 130.964-292.127 292.137 0 127.071 193.259 448.087 292.127 598.982 98.898-150.895 292.147-471.801 292.147-598.982 0-161.173-131.083-292.137-292.147-292.137zM539.806 11.117c0-15.373-12.503-27.825-27.816-27.825-130.438 0-236.477 106.078-236.477 236.486 0 15.323 12.522 27.825 27.825 27.825s27.816-12.503 27.816-27.825c0-99.772 81.123-180.845 180.845-180.845 15.303 0.010 27.806-12.383 27.806-27.816z" />
<glyph unicode="&#xe917;" glyph-name="shapes" d="M1022.306 576.139c-14.947 164.519-131.395 283.881-277.126 283.881-97.089 0-185.985-52.247-236.006-135.983-49.568 84.82-134.821 136.003-230.354 136.003-145.712 0-262.179-119.362-277.106-283.881-1.182-7.267-6.026-45.512 8.705-107.881 21.23-89.96 70.266-171.786 141.773-236.577l356.747-323.741 362.871 323.721c71.507 64.811 120.544 146.618 141.773 236.597 14.731 62.349 9.886 100.594 8.724 107.861zM315.075 700.956c-86.868 0-157.548-70.68-157.548-157.548 0-10.89-8.803-19.693-19.693-19.693s-19.693 8.803-19.693 19.693c0 108.59 88.345 196.934 196.934 196.934 10.89 0 19.693-8.803 19.693-19.693s-8.823-19.693-19.693-19.693z" />
<glyph unicode="&#xe918;" glyph-name="people" d="M617.94 666.971c47.347-29.686 80.548-79.921 86.592-138.233 19.309-9.022 40.74-14.211 63.462-14.211 82.95 0 150.182 67.232 150.182 150.169 0 82.95-67.232 150.182-150.182 150.182-82.158-0.026-148.801-66.056-150.054-147.907zM519.553 359.477c82.95 0 150.182 67.244 150.182 150.182s-67.244 150.169-150.182 150.169c-82.937 0-150.207-67.244-150.207-150.182s67.27-150.169 150.207-150.169zM583.257 349.24h-127.435c-106.029 0-192.289-86.273-192.289-192.302v-155.843l0.396-2.441 10.735-3.361c101.186-31.616 189.094-42.159 261.45-42.159 141.326 0 223.24 40.293 228.288 42.862l10.032 5.073h1.073v155.868c0.038 106.029-86.221 192.302-192.251 192.302zM831.724 504.278h-126.451c-1.367-50.593-22.964-96.151-57.123-128.917 94.247-28.025 163.204-115.422 163.204-218.653v-48.024c124.853 4.575 196.8 39.961 201.541 42.338l10.032 5.086h1.073v155.894c0 106.017-86.26 192.276-192.276 192.276zM256.032 514.502c29.379 0 56.714 8.575 79.87 23.182 7.361 48.012 33.098 89.966 69.864 118.54 0.153 2.811 0.422 5.597 0.422 8.434 0 82.95-67.244 150.182-150.156 150.182-82.963 0-150.182-67.232-150.182-150.182 0-82.912 67.219-150.156 150.182-150.156zM390.904 375.361c-33.993 32.6-55.513 77.915-57.085 128.201-4.69 0.345-9.329 0.716-14.108 0.716h-127.422c-106.029 0-192.289-86.26-192.289-192.276v-155.868l0.396-2.402 10.735-3.386c81.174-25.341 153.619-37.021 216.544-40.702v47.066c0.026 103.231 68.957 190.602 163.229 218.653z" />
<glyph unicode="&#xe919;" glyph-name="arrows2" d="M35.663 586.503c19.7 0 35.663 15.967 35.663 35.663v152.057l229.693-229.645c6.966-6.961 16.091-10.442 25.216-10.442 9.13 0 18.259 3.481 25.221 10.447 13.928 13.928 13.928 36.509-0.005 50.432l-229.702 229.65h152.090c19.695 0 35.663 15.967 35.663 35.663s-15.963 35.663-35.663 35.663h-238.176c-19.7 0-35.663-15.967-35.663-35.663v-238.166c0-19.691 15.963-35.658 35.663-35.658zM988.337 181.497c-19.7 0-35.663-15.967-35.663-35.663v-152.062l-236.763 236.763c-13.932 13.928-36.509 13.928-50.437 0s-13.928-36.509 0-50.432l236.759-236.759h-152.052c-19.7 0-35.663-15.967-35.663-35.663s15.963-35.663 35.663-35.663h238.161c19.7 0 35.663 15.967 35.663 35.663v238.152c-0.005 19.695-15.972 35.663-35.668 35.663zM308.089 230.536l-236.74-236.759v152.057c0 19.695-15.963 35.663-35.663 35.663s-35.663-15.967-35.663-35.663v-238.161c0-19.695 15.963-35.663 35.663-35.663h238.152c19.695 0 35.663 15.967 35.663 35.663s-15.963 35.663-35.663 35.663h-152.057l236.744 236.768c13.928 13.928 13.928 36.509-0.005 50.437-13.918 13.923-36.5 13.923-50.432-0.005zM988.337 895.99h-238.161c-19.7 0-35.663-15.967-35.663-35.663s15.963-35.663 35.663-35.663h152.062l-229.659-229.674c-13.928-13.928-13.928-36.509 0.005-50.437 6.961-6.961 16.091-10.442 25.216-10.442s18.255 3.485 25.221 10.447l229.659 229.674v-152.066c0-19.695 15.963-35.663 35.663-35.663s35.663 15.967 35.663 35.663v238.161c-0.005 19.7-15.972 35.663-35.668 35.663z" />
<glyph unicode="&#xe91a;" glyph-name="photo" d="M1024-14.222v796.444c0 62.578-51.2 113.778-113.778 113.778h-796.444c-62.578 0-113.778-51.2-113.778-113.778v-796.444c0-62.578 51.2-113.778 113.778-113.778h796.444c62.578 0 113.778 51.2 113.778 113.778zM312.889 298.667l142.222-170.667 199.111 256 256-341.333h-796.444l199.111 256z" />
<glyph unicode="&#xe91b;" glyph-name="mark" d="M498.17 896c177.127 0 351.511-81.575 351.511-276.696 0-179.936-206.191-249.134-250.473-314.153-33.244-48.364-22.141-116.321-113.48-116.321-59.5 0-88.564 48.396-88.564 92.678 0 164.783 242.113 202.076 242.113 337.763 0 74.685-49.703 118.966-132.78 118.966-177.127 0-107.961-182.613-242.113-182.613-48.429 0-90 29.064-90 84.384-0.033 135.719 154.921 255.992 323.786 255.992zM491.28 98.993c62.177 0 113.48-51.14 113.48-113.513s-51.205-113.513-113.48-113.513c-62.275 0-113.513 51.074-113.513 113.513 0 62.341 51.238 113.513 113.513 113.513z" />
<glyph unicode="&#xe91c;" glyph-name="communication" d="M77.284 26.566c-42.614 0-77.284-34.67-77.284-77.284 0-42.612 34.67-77.282 77.284-77.282s77.282 34.67 77.282 77.282c0 42.614-34.67 77.284-77.282 77.284zM77.284-89.358c-21.306 0-38.642 17.336-38.642 38.642s17.336 38.642 38.642 38.642c21.306 0 38.642-17.336 38.642-38.642-0.002-21.308-17.336-38.642-38.642-38.642zM231.85 219.774c-53.268 0-96.604-43.338-96.604-96.604s43.336-96.604 96.604-96.604c53.268 0 96.604 43.338 96.604 96.604s-43.336 96.604-96.604 96.604zM231.85 65.208c-31.962 0-57.962 26.002-57.962 57.962s26 57.962 57.962 57.962c31.962 0 57.962-26.002 57.962-57.962s-26-57.962-57.962-57.962zM763.17 857.358c-57.646 0-113.034-18.866-158.358-53.554-37.19 57.418-100.392 92.196-170.094 92.196-111.864 0-202.868-91.008-202.868-202.868 0-12.702 1.174-25.316 3.5-37.69-70.254-23.182-119.424-89.742-119.424-165.178 0-81.566 58.048-152.694 136.744-169.904 40.694-95.274 135.768-158.55 240.010-158.55 111.198 0 210.208 71.158 246.368 174.99 8.010-0.734 16.076-1.104 24.122-1.104 143.82 0 260.83 117.006 260.83 260.83s-117.010 260.832-260.83 260.832zM763.17 374.34c-11.656 0-23.35 0.908-34.75 2.698-9.684 1.52-18.99-4.464-21.614-13.924-26.562-95.772-114.614-162.66-214.128-162.66-91.952 0-175.528 57.786-207.972 143.79-2.466 6.548-8.282 11.248-15.204 12.288-65.524 9.852-114.938 67.344-114.938 133.734 0 63.896 45.344 119.606 107.816 132.464 5.284 1.088 9.872 4.336 12.656 8.958s3.504 10.198 1.996 15.378c-4.34 14.884-6.542 30.384-6.542 46.068 0 90.554 73.67 164.226 164.226 164.226 63.066 0 119.556-35.17 147.43-91.786 2.694-5.466 7.806-9.344 13.796-10.46 5.976-1.11 12.156 0.658 16.636 4.79 41.128 37.926 94.61 58.814 150.59 58.814 122.514 0 222.188-99.674 222.188-222.188s-99.672-222.19-222.186-222.19z" />
<glyph unicode="&#xe91d;" glyph-name="technology-2" d="M941.354 896h-858.709c-45.556 0-82.646-37.090-82.646-82.646v-726.677c0-45.556 37.090-82.646 82.646-82.646h82.646v-132.031h330.381v132.031h445.682c45.556 0 82.646 37.090 82.646 82.646v726.677c0 45.556-37.090 82.646-82.646 82.646zM462.413-94.942h-264.265v247.735h264.265v-247.735zM165.090 185.852v-66.117h-33.058v99.175h396.296v-99.175h-33.058v66.117h-330.18zM990.942 86.677c0-27.414-22.173-49.587-49.587-49.587h-445.883v49.587h66.117v165.090h-462.413v-165.090h66.117v-49.587h-82.646c-27.414 0-49.587 22.173-49.587 49.587v726.677c0 27.414 22.173 49.587 49.587 49.587h858.709c27.414 0 49.587-22.173 49.587-49.587v-726.677zM99.175 796.825v-495.471h462.413v495.471h-462.413zM528.328 334.614h-396.296v429.354h396.296v-429.354zM594.646 730.91v-99.175h99.175v99.175h-99.175zM660.762 664.794h-33.058v33.058h33.058v-33.058zM726.677 730.91v-99.175h99.175v99.175h-99.175zM792.794 664.794h-33.058v33.058h33.058v-33.058zM858.91 730.91v-99.175h99.175v99.175h-99.175zM925.027 664.794h-33.058v33.058h33.058v-33.058zM594.646 598.879v-99.175h99.175v99.175h-99.175zM660.762 532.561h-33.058v33.058h33.058v-33.058zM726.677 598.879v-99.175h99.175v99.175h-99.175zM792.794 532.561h-33.058v33.058h33.058v-33.058zM858.91 598.879v-99.175h99.175v99.175h-99.175zM925.027 532.561h-33.058v33.058h33.058v-33.058zM594.646 466.646v-99.175h99.175v99.175h-99.175zM660.762 400.529h-33.058v33.058h33.058v-33.058zM726.677 466.646v-99.175h99.175v99.175h-99.175zM792.794 400.529h-33.058v33.058h33.058v-33.058zM858.91 466.646v-99.175h99.175v99.175h-99.175zM925.027 400.529h-33.058v33.058h33.058v-33.058zM594.646 796.825h363.439v-33.058h-363.439v33.058z" />
<glyph unicode="&#xe91e;" glyph-name="technology-12" d="M809.283 261.668c-20.964 21.828-46.25 33.499-73.049 33.499-26.583 0-52.085-11.454-73.914-33.283l-68.295-68.078c-5.619 3.026-11.238 5.835-16.641 8.645-7.78 3.89-15.129 7.564-21.396 11.454-63.972 40.631-122.109 93.581-177.869 162.092-27.015 34.147-45.17 62.892-58.353 92.068 17.722 16.209 34.147 33.067 50.14 49.276 6.051 6.051 12.103 12.319 18.154 18.37 45.386 45.386 45.386 104.171 0 149.557l-59.001 59.001c-6.7 6.7-13.616 13.616-20.099 20.532-12.967 13.4-26.583 27.231-40.631 40.199-20.964 20.748-46.034 31.77-72.401 31.77s-51.869-11.022-73.482-31.77c-0.216-0.216-0.216-0.216-0.432-0.432l-73.482-74.13c-27.664-27.664-43.441-61.379-46.899-100.497-5.187-63.108 13.4-121.893 27.664-160.363 35.012-94.445 87.313-181.975 165.333-275.772 94.662-113.032 208.558-202.29 338.664-265.182 49.708-23.557 116.058-51.437 190.188-56.192 4.539-0.216 9.293-0.432 13.616-0.432 49.924 0 91.852 17.938 124.703 53.598 0.216 0.432 0.648 0.648 0.864 1.081 11.238 13.616 24.206 25.935 37.821 39.118 9.293 8.861 18.803 18.154 28.096 27.88 21.396 22.261 32.634 48.195 32.634 74.778 0 26.799-11.454 52.518-33.283 74.13l-118.651 119.083zM886.654 34.092c-0.216 0-0.216-0.216 0 0-8.429-9.077-17.074-17.29-26.367-26.367-14.048-13.4-28.312-27.448-41.712-43.224-21.828-23.341-47.547-34.363-81.262-34.363-3.242 0-6.7 0-9.942 0.216-64.188 4.106-123.838 29.176-168.575 50.573-122.325 59.217-229.738 143.289-318.996 249.837-73.698 88.826-122.974 170.953-155.608 259.131-20.099 53.814-27.448 95.742-24.206 135.293 2.161 25.286 11.887 46.25 29.825 64.188l73.698 73.698c10.59 9.942 21.828 15.345 32.851 15.345 13.616 0 24.638-8.213 31.554-15.129 0.216-0.216 0.432-0.432 0.648-0.648 13.183-12.319 25.719-25.070 38.902-38.686 6.7-6.916 13.616-13.832 20.532-20.964l59.001-59.001c22.909-22.909 22.909-44.089 0-66.998-6.268-6.268-12.319-12.535-18.587-18.587-18.154-18.587-35.444-35.876-54.247-52.734-0.432-0.432-0.864-0.648-1.081-1.081-18.587-18.587-15.129-36.741-11.238-49.060 0.216-0.648 0.432-1.297 0.648-1.945 15.345-37.173 36.957-72.185 69.807-113.896l0.216-0.216c59.65-73.482 122.541-130.754 191.917-174.627 8.861-5.619 17.938-10.158 26.583-14.48 7.78-3.89 15.129-7.564 21.396-11.454 0.864-0.432 1.729-1.081 2.593-1.513 7.348-3.674 14.264-5.403 21.396-5.403 17.938 0 29.176 11.238 32.851 14.912l73.914 73.914c7.348 7.348 19.019 16.209 32.634 16.209 13.4 0 24.422-8.429 31.122-15.777 0.216-0.216 0.216-0.216 0.432-0.432l119.083-119.083c22.261-22.044 22.261-44.737 0.216-67.646zM553.394 652.417c56.624-9.509 108.061-36.309 149.124-77.372s67.646-92.5 77.372-149.124c2.377-14.264 14.696-24.206 28.744-24.206 1.729 0 3.242 0.216 4.971 0.432 15.993 2.593 26.583 17.722 23.99 33.715-11.671 68.511-44.089 130.97-93.581 180.462s-111.951 81.91-180.462 93.581c-15.993 2.593-30.905-7.997-33.715-23.773s7.564-31.122 23.557-33.715zM1022.811 444.292c-19.235 112.816-72.401 215.474-154.095 297.168s-184.352 134.86-297.168 154.095c-15.777 2.81-30.689-7.997-33.499-23.773-2.593-15.993 7.997-30.905 23.99-33.715 100.713-17.074 192.565-64.837 265.614-137.67 73.049-73.049 120.596-164.901 137.67-265.614 2.377-14.264 14.696-24.206 28.744-24.206 1.729 0 3.242 0.216 4.971 0.432 15.777 2.377 26.583 17.506 23.773 33.283z" />
<glyph unicode="&#xe91f;" glyph-name="interface" d="M0 723.388v-678.776h1024v678.776h-1024zM512.005 304.216l-420.003 368.824h839.996l-419.993-368.824zM344.695 384.119l-294.346-258.481v516.965l294.346-258.483zM382.846 350.611l129.147-113.414 129.147 113.414 291.122-255.65h-840.524l291.108 255.65zM679.293 384.107l294.356 258.496v-516.965l-294.356 258.469z" />
<glyph unicode="&#xe920;" glyph-name="location" d="M512 896c-191.626 0-347.527-155.899-347.527-347.525 0-77.005 45.336-194.115 142.676-368.549 66.423-119.022 132.54-219.556 135.329-223.791l47.788-72.435c4.818-7.305 12.982-11.701 21.735-11.701s16.917 4.395 21.735 11.701l47.786 72.43c2.762 4.187 68.398 103.851 135.331 223.795 97.34 174.426 142.676 291.536 142.676 368.549 0 191.626-155.901 347.525-347.527 347.525zM671.378 205.304c-66.002-118.266-130.6-216.366-133.323-220.489l-26.055-39.493-26.047 39.483c-2.737 4.156-67.831 103.135-133.331 220.499-90.291 161.805-136.072 277.265-136.072 343.171 0 162.911 132.537 295.448 295.45 295.448s295.45-132.537 295.45-295.448c0-65.915-45.782-181.371-136.072-343.171zM512 743.33c-106.247 0-192.684-86.439-192.684-192.684s86.437-192.684 192.684-192.684 192.684 86.439 192.684 192.684-86.437 192.684-192.684 192.684zM512 410.038c-77.532 0-140.607 63.075-140.607 140.607s63.075 140.607 140.607 140.607c77.534 0 140.607-63.075 140.607-140.607s-63.073-140.607-140.607-140.607z" />
<glyph unicode="&#xe921;" glyph-name="technology2" d="M599.243 234.626l-347.158 347.093c-37.862 37.862-37.862 99.41 0 137.272l51.452 51.517c37.862 37.862 99.41 37.862 137.272 0l347.158-347.093c17.087 64.656 1.036 136.235-49.64 186.912l-228.85 228.783c-75.852 75.852-198.755 75.852-274.607 0l-51.452-51.452c-75.852-75.852-75.852-198.755 0-274.607l228.848-228.85c50.676-50.674 122.258-66.597 186.977-49.575zM840.584 255.012l-228.85 228.722c-50.676 50.676-122.256 66.662-186.912 49.575l347.095-347.093c37.927-37.927 37.927-99.41 0-137.272l-51.452-51.583c-37.927-37.797-99.475-37.797-137.272 0l-347.093 347.223c-17.087-64.721-1.1-136.235 49.575-186.912l228.85-228.785c75.852-75.852 198.69-75.852 274.607 0l51.452 51.583c75.852 75.852 75.852 198.69 0 274.542z" />
<glyph unicode="&#xe922;" glyph-name="search" d="M409.6 128.397c87.318 0 166.698 30.958 228.614 83.349l277.829-277.829c6.35-6.35 14.288-9.526 23.020-9.526s16.67 3.175 23.020 9.526c12.701 12.701 12.701 33.34 0 46.040l-277.829 277.829c51.597 61.916 83.349 142.090 83.349 228.614 0 197.656-160.347 358.003-358.003 358.003-196.862 0-358.003-161.141-358.003-358.003 0-197.656 161.141-358.003 358.003-358.003zM409.6 779.312c161.935 0 292.912-131.771 292.912-292.912 0-161.935-130.977-292.912-292.912-292.912s-292.912 131.771-292.912 292.912c0 161.141 131.771 292.912 292.912 292.912z" />
<glyph unicode="&#xe923;" glyph-name="null2" d="M219.502 424.146c0 131.717 0 153.683 109.711 153.683v245.135c-255.98 0-329.213-172.1-329.213-475.64v-402.249h475.6v402.249h-256.099v76.822zM768.099 347.324v76.822c0 131.717 0 153.683 109.711 153.683v245.135c-255.98 0-329.174-172.1-329.174-475.64v-402.249h475.364v402.249h-255.901z" />
<glyph unicode="&#xe924;" glyph-name="play-button" d="M777.609 398.097l-375.467 256c-5.239 3.55-11.998 3.942-17.596 0.99-5.581-2.953-9.079-8.755-9.079-15.087v-512c0-6.332 3.499-12.134 9.097-15.087 2.492-1.331 5.239-1.98 7.97-1.98 3.362 0 6.724 1.007 9.609 2.97l375.467 256c4.659 3.174 7.458 8.448 7.458 14.097s-2.799 10.923-7.458 14.097zM409.6 160.307v447.386l328.107-223.693-328.107-223.693zM512 896c-282.317 0-512-229.683-512-512s229.683-512 512-512 512 229.683 512 512-229.683 512-512 512zM512-93.867c-263.492 0-477.867 214.374-477.867 477.867s214.374 477.867 477.867 477.867 477.867-214.374 477.867-477.867-214.374-477.867-477.867-477.867z" />
<glyph unicode="&#xe925;" glyph-name="cross" d="M1024 835.758l-59.364 59.233-452.636-451.773-452.638 451.773-59.362-59.233 452.638-451.776-452.638-451.741 59.362-59.231 452.638 451.741 452.636-451.741 59.364 59.231-452.67 451.741z" />
<glyph unicode="&#xe926;" glyph-name="signs-2" d="M1024 408.381h-487.619v487.619h-48.762v-487.619h-487.619v-48.762h487.619v-487.619h48.762v487.619h487.619z" />
<glyph unicode="&#xe927;" glyph-name="lock" d="M354.043 591.968v80.713c0 87.099 70.859 157.957 157.957 157.957s157.957-70.859 157.957-157.957v-80.713c0.357-0.15 0.717-0.288 1.074-0.438 22.543-9.534 44.001-20.996 64.288-34.258v115.409c0 123.139-100.18 223.319-223.319 223.319s-223.319-100.18-223.319-223.319v-115.409c20.286 13.26 41.747 24.722 64.288 34.258 0.357 0.15 0.717 0.288 1.074 0.438zM512 558.298c-189.516 0-343.149-153.633-343.149-343.149s153.633-343.149 343.149-343.149 343.149 153.633 343.149 343.149-153.633 343.149-343.149 343.149zM484.879 96.334l-128.126 128.126 46.217 46.217 81.909-81.907 122.083 122.083 46.217-46.217-168.3-168.302z" />
<glyph unicode="&#xe928;" glyph-name="letter" d="M989.276 756.222h-954.553c-19.176 0-34.724-15.548-34.724-34.724v-674.994c0-19.173 15.548-34.724 34.724-34.724h954.553c19.173 0 34.724 15.551 34.724 34.724v674.994c0 19.173-15.551 34.724-34.724 34.724zM954.553 81.225h-885.105v605.55h885.105v-605.55zM160.437 523.204l333.347-205.389c5.584-3.442 11.898-5.161 18.215-5.161s12.631 1.72 18.215 5.161l333.347 205.389c16.326 10.059 21.409 31.451 11.35 47.777s-31.457 21.409-47.777 11.348l-315.135-194.163-315.132 194.163c-16.32 10.053-37.713 4.981-47.777-11.348-10.062-16.323-4.981-37.718 11.348-47.777z" />
<glyph unicode="&#xe929;" glyph-name="technology-13" d="M599.243 234.626l-347.158 347.093c-37.862 37.862-37.862 99.41 0 137.272l51.452 51.517c37.862 37.862 99.41 37.862 137.272 0l347.158-347.093c17.087 64.656 1.036 136.235-49.64 186.912l-228.85 228.783c-75.852 75.852-198.755 75.852-274.607 0l-51.452-51.452c-75.852-75.852-75.852-198.755 0-274.607l228.848-228.85c50.676-50.674 122.258-66.597 186.977-49.575zM840.584 255.012l-228.85 228.722c-50.676 50.676-122.256 66.662-186.912 49.575l347.095-347.093c37.927-37.927 37.927-99.41 0-137.272l-51.452-51.583c-37.927-37.797-99.475-37.797-137.272 0l-347.093 347.223c-17.087-64.721-1.1-136.235 49.575-186.912l228.85-228.785c75.852-75.852 198.69-75.852 274.607 0l51.452 51.583c75.852 75.852 75.852 198.69 0 274.542z" />
<glyph unicode="&#xe92a;" glyph-name="arrows3" d="M892.092 83.563c-149.37-188.167-442.29-141.61-510.185 93.114-3.88 11.639-5.82 25.218-7.759 36.857 157.129 34.918 310.379 149.37 323.958 287.1 11.639 124.152-114.452 161.009-197.867 91.174-98.933-83.414-168.769-205.626-174.588-335.594-100.873-13.579-199.806 13.579-254.123 112.512-91.174 166.825 31.038 391.853 193.987 457.809 17.459 5.82 9.699 32.978-7.759 27.158-225.025-64.019-341.417-378.277-188.167-564.502 60.136-71.778 157.129-95.054 258.002-83.414 13.579-131.911 116.392-236.664 238.601-277.401 141.61-46.557 271.582 21.335 354.996 131.911 13.582 17.459-15.519 38.794-29.095 23.275zM457.562 475.416c31.038 42.677 71.775 91.174 124.152 108.633 50.433 17.459 67.895-52.376 69.832-83.414 1.94-38.797-25.218-73.715-50.437-100.873-52.373-60.133-139.667-112.512-228.901-135.788 5.82 75.655 42.677 149.367 85.354 211.442zM1000.722 155.338c-54.316 0-110.572-3.88-162.949-17.459-21.335-5.82-11.639-34.918 9.703-31.038 42.677 7.759 87.294 5.82 129.971 3.88-1.94-25.215-3.88-52.373-7.759-77.592-3.88-19.399-17.459-48.497-5.82-67.895 5.82-9.703 15.519-9.703 25.218-5.82 23.278 9.699 23.278 50.437 27.158 71.775 5.82 34.921 7.756 67.895 7.756 102.816 0 11.633-11.639 21.332-23.278 21.332z" />
<glyph unicode="&#xe92b;" glyph-name="circle" d="M302.080 481.28l-71.68-71.68 230.4-230.4 512 512-71.68 71.68-440.32-440.32-158.72 158.72zM921.6 384c0-225.28-184.32-409.6-409.6-409.6s-409.6 184.32-409.6 409.6 184.32 409.6 409.6 409.6c40.96 0 76.8-5.12 112.64-15.36l81.922 81.92c-61.442 20.48-128.002 35.84-194.562 35.84-281.6 0-512-230.4-512-512s230.4-512 512-512 512 230.4 512 512h-102.4z" />
<glyph unicode="&#xe92c;" glyph-name="telephone" d="M883.657 378.64h-52.225c0 170.437-138.619 309.024-308.962 309.024l-0.031 52.162c199.214 0.094 361.218-161.973 361.218-361.187zM522.439 649.733l-0.031-52.162c120.782 0 218.9-98.212 218.837-218.9l52.225 0.031c0 149.434-121.503 271.031-271.031 271.031zM512 896c-282.348 0-512-229.652-512-512.031 0-282.316 229.652-511.969 512-511.969 17.461 0 31.567 14.106 31.567 31.536 0 17.523-14.106 31.661-31.567 31.661-247.52 0-448.835 201.377-448.835 448.772 0 247.52 201.314 448.866 448.835 448.866s448.803-201.377 448.803-448.866c0-103.416-55.046-205.891-133.823-249.339-28.62-15.736-59.654-23.542-92.757-23.856 19.874 11.818 37.084 27.805 49.874 47.93 2.508 3.793 5.831 7.147 7.461 11.254 10.282 24.733 11.191 52.789 17.398 78.933 7.617 33.354-146.017 98.525-159.371 56.865-4.828-15.423-12.226-64.2-21.912-77.052-8.621-11.473-29.874-6.019-43.166 5.266-35.015 29.843-74.106 73.698-108.4 108.369l0.063 0.031c-0.878 0.909-1.944 1.912-2.884 2.884-0.972 0.909-1.944 1.944-2.915 2.884v-0.063c-34.67 34.357-78.557 73.353-108.369 108.431-11.285 13.291-16.74 34.545-5.266 43.166 12.853 9.749 61.629 17.022 77.052 21.912 41.567 13.291-23.511 167.020-56.927 159.371-26.081-6.113-54.137-7.116-78.871-17.335-4.201-1.787-7.461-5.016-11.254-7.523-87.742-55.611-99.058-190.656-13.417-291.282 32.633-38.495 66.676-75.736 101.723-112.099l-0.188-0.125c0.972-0.972 1.975-1.881 2.978-2.821 0.94-0.972 1.85-1.944 2.759-2.978l0.188 0.188c36.363-35.047 79.466-86.676 149.497-133.384 147.428-98.463 260.561-70.971 327.206-34.42 115.046 63.353 166.518 198.681 166.518 304.667 0 282.504-229.684 512.157-512 512.157z" />
<glyph unicode="&#xe92d;" glyph-name="signs-1" d="M500.899 896c66.814 0 120.853-54.038 120.853-120.853s-54.038-120.853-120.853-120.853-120.853 54.038-120.853 120.853 54.038 120.853 120.853 120.853zM610.86 578.474h-204.632c-39.795 0-71.841-32.255-71.841-71.841v0c0-39.795 32.255-71.841 71.841-71.841h7.121v-418.9h-78.963v-143.892h355.227v143.892h-78.544v562.582h-0.209z" />
<glyph unicode="&#xe92e;" glyph-name="social" d="M1024 725.322c0 89.68-80.964 170.678-170.667 170.678h-682.667c-89.702 0-170.667-80.998-170.667-170.678v-682.644c0-89.68 80.964-170.678 170.678-170.678h341.322v386.844h-125.156v170.667h125.156v66.492c0 114.677 86.107 217.953 192 217.953h137.956v-170.667h-137.956c-15.098 0-32.711-18.33-32.711-45.784v-67.994h170.667v-170.667h-170.667v-386.844h182.044c89.702 0 170.667 80.998 170.667 170.678v682.644z" />
<glyph unicode="&#xe92f;" glyph-name="square" d="M967.665 839.672c-37.54 37.55-82.77 56.328-135.654 56.328h-640.005c-52.884 0-98.114-18.778-135.671-56.328-37.55-37.557-56.328-82.784-56.328-135.671v-639.998c0-52.882 18.778-98.114 56.328-135.671 37.557-37.557 82.787-56.335 135.671-56.335h639.998c52.884 0 98.114 18.778 135.654 56.335 37.557 37.557 56.335 82.787 56.335 135.671v639.998c-0.002 52.886-18.781 98.121-56.328 135.671zM783.339 501.997c0.446-4 0.672-9.989 0.672-18.003 0-37.335-5.45-74.78-16.334-112.325-10.884-37.564-27.553-73.563-50.007-108.005-22.43-34.44-49.209-64.893-80.316-91.335-31.114-26.433-68.442-47.553-112.007-63.319-43.544-15.79-90.219-23.684-139.993-23.684-77.327 0-148.882 20.903-214.663 62.663 10.666-1.326 21.784-1.996 33.333-1.996 64.447 0 122.447 20 174.005 60.011-30.218 0.432-57.223 9.758-80.998 27.999-23.782 18.22-40.333 41.328-49.669 69.33 11.551-1.775 20.217-2.655 25.994-2.655 9.777 0 21.113 1.775 33.998 5.322-32.443 6.232-59.772 22.328-81.995 48.328-22.227 26.003-33.337 55.667-33.337 88.998v1.333c23.549-11.103 45.771-16.88 66.663-17.331-40.445 27.117-60.667 66-60.667 116.666 0 24.892 6.44 48.445 19.329 70.668 35.107-43.114 77.783-77.554 127.998-103.33 50.22-25.774 104.003-40.226 161.333-43.334-2.218 8.444-3.332 19.115-3.332 31.999 0 38.673 13.667 71.667 41.003 99.003 27.327 27.334 60.33 41.006 98.992 41.006 40.898 0 74.906-14.671 102.013-44.006 30.668 5.777 60.459 17.116 89.339 33.998-11.108-34.213-31.787-60.216-61.995-77.995 28.88 4.007 55.761 11.558 80.645 22.669-18.664-28.443-42.005-52.665-70.005-72.674z" />
<glyph unicode="&#xe930;" glyph-name="social-network2" d="M471.040 542.72c0 51.2-30.72 153.6-107.52 153.6-30.72 0-66.56-20.48-66.56-87.040 0-61.44 30.72-148.48 102.4-148.48 0 0 71.68 5.12 71.68 81.92zM440.32 291.84c-5.12 0-10.24 0-15.36 0v0c-15.36 0-61.44-5.12-92.16-15.358-35.84-10.242-76.8-35.842-76.8-87.042 0-56.32 51.2-112.64 153.6-112.64 76.8 0 122.88 51.2 122.88 102.4 0 35.84-25.6 61.44-92.16 112.64zM921.6 896h-819.2c-56.32 0-102.4-46.080-102.4-102.4v-819.2c0-56.32 46.080-102.4 102.4-102.4h819.2c56.32 0 102.4 46.080 102.4 102.4v819.2c0 56.32-46.080 102.4-102.4 102.4zM363.52 15.36c-143.36 0-209.92 81.92-209.92 153.6 0 25.6 5.12 81.92 76.8 122.878 40.96 25.6 92.16 40.96 158.72 46.080-10.24 10.242-15.36 25.6-15.36 51.2 0 10.24 0 15.36 5.12 25.6h-20.48c-102.4 0-163.84 76.8-163.84 153.6 0 87.040 66.56 184.32 209.92 184.32h215.040l-56.32-56.318h-35.84c20.478-20.48 46.078-56.32 46.078-112.64 0-71.68-35.84-107.52-81.92-138.24-10.24-5.12-20.48-20.48-20.48-35.84s10.24-25.6 20.48-30.72c5.12-5.12 15.36-10.242 25.6-15.36 40.96-30.72 97.28-66.558 97.28-148.48 0.002-92.16-66.558-199.68-250.878-199.68zM870.4 384h-102.4v-102.4h-51.2v102.4h-102.4v51.2h102.4v102.4h51.2v-102.4h102.4v-51.2z" />
<glyph unicode="&#xe931;" glyph-name="travel" d="M921.6 896h-819.2c-56.32 0-102.4-46.080-102.4-102.4v-819.2c0-56.32 46.080-102.4 102.4-102.4h819.2c56.32 0 102.4 46.080 102.4 102.4v819.2c0 56.32-46.080 102.4-102.4 102.4zM563.2 168.96c-40.96 0-81.92 15.358-107.52 46.078l-51.2-163.84-5.12-10.24c-10.24-15.36-25.6-25.6-46.080-25.6-30.72 0-56.32 25.6-56.32 56.32 0 5.12 0 5.12 0 5.12v0l5.12 10.24 92.16 286.722c0 0-10.24 30.72-10.24 76.8 0 87.040 46.080 112.64 87.040 112.64 35.84 0 71.68-15.36 71.68-66.56 0-66.56-46.080-102.4-46.080-153.6 0-35.84 30.72-66.558 66.56-66.558 117.76 0 163.84 92.158 163.84 174.080 0 112.64-97.278 204.8-215.040 204.8-117.76 0-215.040-92.16-215.040-204.8 0-35.84 10.24-66.56 25.6-97.28 5.12-10.242 5.12-15.36 5.12-25.6 0-30.72-20.48-51.2-51.2-51.2-20.48 0-35.84 10.24-46.080 25.6-25.6 46.080-40.96 97.28-40.96 153.6 0 168.96 143.36 307.2 317.44 307.2s317.44-138.24 317.44-307.2c5.12-143.362-76.8-286.722-261.12-286.722z" />
<glyph unicode="&#xe932;" glyph-name="clock2" d="M512.057-128v23.438l-0.038-23.438c-282.304 0-511.995 229.682-512.013 511.995 0 282.324 229.681 512.005 511.995 512.005 282.316 0 511.995-229.681 511.995-511.995 0-282.316-229.652-512.005-511.938-512.005zM512 849.122c-256.467 0-465.117-208.652-465.117-465.117 0.018-256.467 208.68-465.115 465.135-465.115h0.038c256.438 0 465.058 208.648 465.058 465.115 0.012 256.467-208.64 465.117-465.115 465.117zM513.236 20.498h-0.035c-200.421 0-363.498 163.067-363.517 363.497 0 200.43 163.067 363.488 363.497 363.488s363.497-163.059 363.497-363.488-163.039-363.497-363.441-363.497zM513.181 700.605c-174.59 0-316.618-142.030-316.618-316.61 0.028-174.58 142.067-316.618 316.639-316.618h0.035c174.552 0 316.562 142.031 316.562 316.618 0.003 174.58-142.035 316.61-316.617 316.61zM507.538 320.233c-13.96 0-27.086 5.438-36.949 15.32-9.872 9.865-15.32 22.988-15.31 36.958 0 13.961 5.446 27.086 15.33 36.949 9.843 9.853 22.96 15.291 36.939 15.291 13.96 0 27.086-5.438 36.949-15.32 20.375-20.401 20.365-53.553-0.018-73.907-9.874-9.853-22.99-15.291-36.941-15.291zM507.538 377.873c-1.012 0-2.495-0.271-3.778-1.566-1.33-1.332-1.603-2.804-1.603-3.815 0-1.004 0.273-2.493 1.574-3.8 2.615-2.614 5.006-2.607 7.613-0.010 2.1 2.112 2.092 5.525-0.018 7.633-1.303 1.287-2.784 1.558-3.788 1.558zM527.921 369.435c-6.301 0-12.582 2.533-17.204 7.509-8.794 9.497-8.23 24.33 1.265 33.124l163.489 151.47c9.517 8.794 24.33 8.222 33.124-1.267 8.804-9.497 8.232-24.33-1.267-33.123l-163.489-151.47c-4.519-4.173-10.228-6.244-15.919-6.244zM473.59 374.612c-5.485 0-10.988 1.914-15.432 5.804l-104.443 91.494c-9.731 8.532-10.717 23.336-2.185 33.078 8.522 9.741 23.336 10.707 33.078 2.185l104.443-91.496c9.731-8.532 10.717-23.334 2.185-33.078-4.643-5.289-11.13-7.988-17.646-7.988z" />
<glyph unicode="&#xe933;" glyph-name="people-12" d="M930.817 478.38c15.418 23.038 24.918 51.141 24.918 81.976 0 79.645-56.888 142.222-130.845 142.222s-130.845-62.577-130.845-142.222c0-30.777 9.5-58.879 24.918-81.976-21.675-7.565-40.96-20.253-56.319-36.978 1.877 10.808 2.959 22.015 2.959 33.565 0 96.711-68.268 170.668-153.599 170.668s-153.599-73.954-153.599-170.668c0-11.55 1.082-22.754 2.959-33.565-15.418 16.67-34.7 29.41-56.319 36.978 15.418 23.038 24.918 51.141 24.918 81.976 0 79.645-56.888 142.222-130.845 142.222s-130.845-62.577-130.845-142.222c0-30.777 9.5-58.879 24.918-81.976-53.423-18.661-93.19-69.746-93.19-128.514v-96.711c0-17.065 11.377-28.446 28.446-28.446s28.446 11.377 28.446 28.446v96.711c0 45.511 34.134 79.645 79.645 79.645h11.377c0 0 0 0.739 0 0.798 16.042-7.735 33.395-12.175 51.2-12.175s35.157 4.436 51.2 12.175v-0.798h11.377c45.511 0 79.645-34.134 79.645-79.645 0-1.138 0.454-1.991 0.513-3.014-41.474-29.982-68.778-78.449-68.778-133.516v-119.468c0-17.065 11.377-28.446 28.446-28.446 17.065 0 28.446 11.377 28.446 28.446v119.468c0 56.888 51.2 108.088 108.088 108.088h7.169c20.197-10.638 42.667-17.065 66.787-17.065s46.534 6.427 66.787 17.065h7.169c56.888 0 108.088-51.2 108.088-108.088v-119.468c0-17.065 11.377-28.446 28.446-28.446 17.065 0 28.446 11.377 28.446 28.446v119.468c0 55.012-27.308 103.537-68.778 133.516 0.114 1.082 0.513 1.935 0.513 3.014 0 45.511 34.134 79.645 79.645 79.645h11.377c0 0 0 0.739 0 0.798 16.042-7.735 33.395-12.175 51.2-12.175s35.157 4.436 51.2 12.175v-0.798h11.377c45.511 0 79.645-34.134 79.645-79.645v-96.711c0-17.065 11.377-28.446 28.446-28.446s28.446 11.377 28.446 28.446v96.711c-0.013 58.824-39.836 109.853-93.196 128.514zM125.157 560.356c0 45.511 34.134 85.334 73.954 85.334s73.954-39.823 73.954-85.334-34.134-85.334-73.954-85.334-73.954 39.823-73.954 85.334zM415.289 475.022c0 62.577 45.511 113.776 96.711 113.776s96.711-51.2 96.711-113.776-39.823-113.776-96.711-113.776-96.711 51.2-96.711 113.776zM750.933 560.356c0 45.511 34.134 85.334 73.954 85.334s73.954-39.823 73.954-85.334-34.134-85.334-73.954-85.334-73.954 39.823-73.954 85.334z" />
<glyph unicode="&#xe934;" glyph-name="globe" d="M243.286 190.465l-48.754 22.14-13.654-7.205-12.645-0.336 0.945 13.17-12.099 7.205-17.204-17.204 11.532-14.179 24.934-3.592 14.011-7.352 0.378-6.848h-9.095l0.378-13.99 30.248 1.933 11.007 11.7 11.721 1.134v-21.552h20.417v8.717h-10.23zM392.174 639.501l1.891 11.889-12.288 1.891c0-0.735 0.945-13.78 1.891-13.78s8.507 0 8.507 0zM745.151 603.077l-2.668-6.974h-13.086v-6.68h3.109c0 0 0.189-1.428 0.441-3.319l8.003 0.651 4.957 3.109 1.302 6.239 6.47 0.567 2.521 5.272-5.882 1.239-5.167-0.105zM711.521 590.831l-0.504-6.596 9.474 0.798 0.987 6.617-5.714 4.453zM511.989 896c-182.454 0-342.79-95.995-433.492-240.073-49.636-78.876-78.477-172.057-78.477-271.938 0-15.418 0.798-30.689 2.164-45.792 2.941-32.916 9.032-64.949 17.918-95.827 4.579-15.88 9.915-31.403 15.943-46.653 11.994-30.206 26.761-59.026 44.028-86.102 32.139-50.413 72.805-94.882 120.026-131.285 12.855-9.894 26.194-19.199 39.974-27.895 5.672-3.529 11.385-6.974 17.183-10.314 75.095-43.271 162.037-68.142 254.755-68.142 282.273 0 511.968 229.696 511.968 511.968-0.021 282.357-229.696 512.053-511.989 512.053zM733.241-30.492l-11.322 9.558 1.155 8.318 3.571 10.167 0.756 10.419-13.486 0.378-6.743 8.528 11.154 10.797 1.491 8.129-12.477 3.571 0.714 7.541 17.792 2.71 27.076 12.981 9.074 16.657 28.379 36.298-6.47 28.421 8.738 15.145 26.047-0.777 17.603 13.864 5.693 54.74 19.472 24.787 3.403 15.901-17.771 5.693-11.742 19.283-40.079 0.378-31.76 12.099-1.512 22.686-10.629 18.548-28.715 0.42-16.615 26.047-14.746 7.184-0.756-7.982-26.824-1.575-9.852 13.675-27.979 5.693-23.085-26.677-36.319 6.155-2.647 40.919-26.467 4.537 10.608 20.039-3.067 11.553-34.785-23.253-21.909 2.668-7.814 17.099 4.789 17.645 12.078 22.266 27.79 14.074 53.69 0.021-0.168-16.363 19.304-8.99-1.533 27.937 13.906 13.99 28.063 18.422 1.933 12.96 27.979 29.135 29.744 16.468-2.626 2.164 20.144 18.968 7.415-1.954 3.382-4.264 7.625 8.486 1.891 0.819-8.381 1.197-8.465 2.815v8.213l4.516 3.697h9.957l4.558-1.996 3.949-7.94 4.81 0.735v0.672l1.344-0.462 13.948 2.185 2.017 6.806 7.919-1.996v-7.394l-7.394-5.104h0.042l1.071-8.087 25.27-7.793c0 0 0.042-0.105 0.084-0.294l5.777 0.483 0.42 10.944-20.039 9.116-1.134 5.272 16.615 5.693 0.735 15.88-17.351 10.587-1.155 26.824-23.841-11.721h-8.738l2.29 20.438-32.433 7.646-13.465-10.125v-30.92l-24.093-7.646-9.663-20.144-10.461-1.68v25.816l-22.665 3.109-11.343 7.394-4.558 16.72 40.562 23.736 19.85 6.029 1.975-13.318 11.049 0.567 0.861 6.701 11.574 1.638 0.21 2.353-4.957 2.038-1.155 7.1 14.242 1.197 8.57 8.948 0.462 0.651 0.105-0.042 2.626 2.689 29.891 3.781 13.212-11.217-34.638-18.464 44.112-10.377 5.693 14.725h19.283l6.806 12.876-13.612 3.382v16.258l-42.704 18.905-29.513-3.403-16.657-8.696 1.155-21.195-17.393 2.647-2.668 11.742 16.657 15.124-30.227 1.512-8.696-2.647-3.781-10.209 11.322-1.891-2.248-11.364-19.283-1.113-3.046-7.562-27.979-0.756c0 0-0.735 15.88-1.891 15.88s21.909 0.378 21.909 0.378l16.657 16.279-9.116 4.516-12.057-11.742-20.060 1.155-12.099 16.636h-25.732l-26.845-20.039h24.577l2.248-7.184-6.407-6.050 27.223-0.756 4.138-9.81-30.647 1.113-1.491 7.562-19.262 4.159-10.23 5.672-45.351-0.378-14.011-13.612-9.453 0.756-10.566 6.050-31.403 9.453h-57.471l-33.273-22.665-22.308-3.445-10.23-7.919 15.88-2.374v-6.323h-34.008l-13.255-9.431 17.015-14.41 46.527-0.378 6.449 6.806h38.944l13.99-12.477-0.735-19.304 11.721-10.965-9.831-6.974 2.248-25.522-35.163-42.746v-40.079l18.905-9.074v-36.004l18.149-30.962 14.725-2.248 1.891 10.587-17.372 26.866-3.403 26.068h10.209l4.306-26.845 25.144-36.676-6.512-11.847 15.985-24.45 39.722-9.831v6.449l15.88-2.269-1.512-11.322 12.498-2.29 19.283-5.272 27.223-31.046 34.785-2.626 3.382-28.358-23.799-16.636-1.176-25.354-3.382-15.46 34.428-43.166 2.626-14.746c0 0 12.519-3.361 13.99-3.361 1.512 0 28.021-20.060 28.021-20.060v-77.91l9.431-2.668-6.47-35.899 15.901-21.174-2.941-35.625 20.985-36.907 23.337-20.396c-59.845-27.643-126.39-43.229-196.486-43.229-76.859 0-149.392 18.695-213.501 51.506l12.393 8.129 15.082 6.68 15.166 8.57-5.608 9.978-8.213-1.617-0.231 18.506-15.061-0.903-1.912-28.967-13.234-9.032-15.502-2.164c-17.498 9.894-34.386 20.753-50.392 32.79l17.225 16.195 13.234 30.206-5.482 22.308-20.375 17.456-1.533 33.294-13.465 23.064-12.078 0.525-4.915-41.759-23.127 1.722-6.449 3.907-0.777 16.594 12.225-2.5 10.314 10.062-21.951 13.212h-25.816l-18.527-26.299h-7.562v8.318l-7.079-0.504c-5.188 8.171-10.167 16.447-14.851 24.955-1.050 1.891-2.038 3.781-3.067 5.693-0.882 1.68-1.722 3.361-2.605 5.083l1.975-0.609 1.68 5.945h-6.386c-1.617 3.193-3.214 6.428-4.768 9.684l6.491 0.567-0.294 36.844-19.052-7.415c-1.954 4.978-3.823 10.062-5.608 15.145-4.936 14.116-9.242 28.526-12.834 43.229-7.73 31.592-12.204 64.424-13.17 98.138l3.151 1.176 17.393 14.515-2.647 26.299-16.027 16.804c1.344 14.053 3.382 27.874 5.945 41.549l37.873-28.883 13.423 3.613-8.885 11.721-25.522 15.502 1.512 23.043 30.227-0.021 2.458 28.568-11.532 15.187 6.806 7.373 14.746-14.767 4.726 6.26-18.905 21.552-19.85 2.395c3.508 8.549 7.205 17.036 11.196 25.312l12.057-1.071 40.856 27.244 6.785-8.528-9.095-14.179v-14.179l37.432-30.605 11.931 6.218-4.558 20.417-26.635 24.955 35.142 2.269v10.209l17.036 3.403-13.044 8.99 0.546 6.89 35.73-5.777 6.806 5.777-48.229 20.417-64.025 3.298c85.178 121.097 225.873 200.519 384.822 200.519 259.146 0 469.957-210.833 469.957-469.999 0-179.177-100.827-335.228-248.706-414.482z" />
<glyph unicode="&#xe935;" d="M711.93 459.039v-78.801c0-14.841 5.853-28.636 15.886-39.087v-26.755c0-11.496 9.197-20.693 20.693-20.693s20.693 9.197 20.693 20.693v36.37c0 6.898-3.553 13.377-9.197 17.14-4.18 2.717-6.689 7.316-6.689 12.332v78.801c0 27.591 22.574 50.165 50.165 50.165h16.931c27.591 0 50.165-22.574 50.165-50.165v-78.801c0-5.017-2.508-9.615-6.689-12.332-5.853-3.762-9.197-10.242-9.197-17.14v-75.875c0-9.197 5.435-17.767 13.586-21.738 9.824-4.808 60.825-30.517 108.065-69.186 3.971-3.344 6.271-8.152 6.271-13.586v-33.235h-145.061c-11.496 0-20.693-9.197-20.693-20.693s9.197-20.693 20.693-20.693h165.755c11.496 0 20.693 9.197 20.693 20.693v53.928c0 17.767-7.734 34.28-21.529 45.567-41.595 34.071-86.117 58.944-106.392 69.604v55.809c10.033 10.451 15.886 24.247 15.886 39.087v78.801c0 50.583-41.177 91.552-91.552 91.552h-16.931c-50.374-0.209-91.552-41.177-91.552-91.761z" />
<glyph unicode="&#xe936;" d="M20.693 95.758h168.263c11.496 0 20.693 9.197 20.693 20.693s-9.197 20.693-20.693 20.693h-147.57v33.235c0 5.226 2.299 10.242 6.271 13.586 47.030 38.669 98.24 64.588 108.065 69.186 8.361 3.971 13.586 12.541 13.586 21.738v75.875c0 6.898-3.553 13.377-9.197 17.14-4.18 2.717-6.689 7.316-6.689 12.332v78.801c0 27.591 22.574 50.165 50.165 50.165h16.931c27.591 0 50.165-22.574 50.165-50.165v-78.801c0-5.017-2.508-9.615-6.689-12.332-5.853-3.762-9.197-10.242-9.197-17.14v-38.042c0-11.496 9.197-20.693 20.693-20.693s20.693 9.197 20.693 20.693v28.427c10.033 10.451 15.886 24.247 15.886 39.087v78.801c0 50.583-41.177 91.552-91.552 91.552h-16.931c-50.583 0-91.552-41.177-91.552-91.552v-78.801c0-14.841 5.853-28.636 15.886-39.087v-55.809c-20.484-10.66-64.797-35.325-106.392-69.604-13.586-11.287-21.529-27.8-21.529-45.567v-53.719c0-11.496 9.197-20.693 20.693-20.693z" />
<glyph unicode="&#xe937;" d="M636.264 457.994v101.794c0 62.080-50.374 112.454-112.454 112.454h-21.947c-62.080 0-112.454-50.374-112.454-112.454v-101.794c0-18.394 7.525-35.534 20.484-48.075v-78.383c-24.456-12.541-84.236-45.149-140.045-91.134-16.304-13.377-25.501-33.026-25.501-54.137v-69.813c0-11.496 9.197-20.693 20.693-20.693h495.383c11.496 0 20.693 9.197 20.693 20.693v69.813c0 21.111-9.197 40.759-25.501 54.137-55.809 45.776-115.589 78.592-140.045 91.134v78.383c13.168 12.332 20.693 29.681 20.693 48.075zM729.488 208.421c6.689-5.435 10.451-13.586 10.451-22.156v-49.12h-453.996v49.12c0 8.57 3.762 16.722 10.451 22.156 61.453 50.583 128.131 84.236 140.881 90.507 8.57 4.18 14.214 13.168 14.214 22.574v98.24c0 6.898-3.553 13.377-9.197 17.14-7.107 4.808-11.287 12.541-11.287 20.902v101.794c0 39.296 31.98 71.068 71.068 71.068h21.947c39.296 0 71.068-31.98 71.068-71.068v-101.794c0-8.361-4.18-16.304-11.287-20.902-5.853-3.762-9.197-10.242-9.197-17.14v-98.24c0-9.615 5.644-18.394 14.214-22.574 12.541-6.271 79.219-40.132 140.672-90.507z" />
<glyph unicode="&#xe938;" glyph-name="transport-2" d="M837.174 222.612c-25.021 0-48.792-9.8-66.724-27.524-17.932-17.932-27.941-41.285-27.941-66.307s9.8-48.375 27.941-66.307c18.141-17.723 41.702-27.524 66.724-27.524 51.294 0 92.996 42.119 92.996 93.83s-41.702 93.83-92.996 93.83zM837.174 76.654c-28.775 0-52.962 23.77-52.962 52.128s24.187 52.128 52.962 52.128c28.358 0 51.294-23.353 51.294-52.128s-22.936-52.128-51.294-52.128zM861.361 535.171c-3.753 3.545-8.757 5.421-13.97 5.421h-106.966c-11.468 0-20.851-9.383-20.851-20.851v-170.979c0-11.468 9.383-20.851 20.851-20.851h169.728c11.468 0 20.851 9.383 20.851 20.851v114.473c0 5.838-2.502 11.468-6.881 15.43l-62.762 56.507zM889.302 369.613h-128.026v129.486h77.983l50.043-45.038v-84.447zM327.989 222.612c-25.021 0-48.792-9.8-66.724-27.524-17.932-17.932-27.941-41.285-27.941-66.307s9.8-48.375 27.941-66.307c18.141-17.723 41.702-27.524 66.724-27.524 51.294 0 92.996 42.119 92.996 93.83s-41.702 93.83-92.996 93.83zM327.989 76.654c-28.775 0-52.962 23.77-52.962 52.128s24.187 52.128 52.962 52.128c28.358 0 51.294-23.353 51.294-52.128s-22.936-52.128-51.294-52.128zM188.911 196.965h-41.911v55.464c0 11.468-9.383 20.851-20.851 20.851s-20.851-9.383-20.851-20.851v-76.315c0-11.468 9.383-20.851 20.851-20.851h62.762c11.468 0 20.851 9.383 20.851 20.851s-9.383 20.851-20.851 20.851zM294.627 310.604c0 11.468-9.383 20.851-20.851 20.851h-252.924c-11.468 0-20.851-9.383-20.851-20.851s9.383-20.851 20.851-20.851h252.924c11.468 0 20.851 9.175 20.851 20.851zM63.179 385.877l252.924-1.46c11.468 0 20.851 9.175 21.060 20.643 0.209 11.677-9.175 21.060-20.643 21.060l-252.924 1.46c-0.209 0-0.209 0-0.209 0-11.468 0-20.851-9.175-20.851-20.643-0.209-11.677 9.175-21.060 20.643-21.060zM105.715 480.541h252.924c11.468 0 20.851 9.383 20.851 20.851s-9.383 20.851-20.851 20.851h-252.924c-11.468 0-20.851-9.383-20.851-20.851s9.383-20.851 20.851-20.851zM1016.285 508.69v0l-149.294 123.647c-3.753 3.128-8.34 4.796-13.345 4.796h-175.567v75.064c0 11.468-9.383 20.851-20.851 20.851h-531.079c-11.468 0-20.851-9.383-20.851-20.851v-152.63c0-11.468 9.383-20.851 20.851-20.851s20.851 9.383 20.851 20.851v131.779h489.585v-494.381h-170.979c-11.468 0-20.851-9.383-20.851-20.851s9.383-20.851 20.851-20.851h254.593c11.468 0 20.851 9.383 20.851 20.851s-9.383 20.851-20.851 20.851h-41.911v398.465h168.060l135.95-112.596-1.46-285.452h-21.685c-11.468 0-20.851-9.383-20.851-20.851s9.383-20.851 20.851-20.851h42.328c11.468 0 20.851 9.175 20.851 20.643l1.668 316.103c-0.209 6.255-2.919 12.302-7.715 16.264z" />
<glyph unicode="&#xe939;" glyph-name="web" d="M1014.331 404.555l-460.176 371.717-25.539 21.208c-9.635 8.005-23.607 8.005-33.24 0l-132.79-110.276v46.626c0 14.37-11.653 26.021-26.018 26.021h-99.199c-14.368 0-26.018-11.653-26.018-26.021v-171.765l-201.783-164.628c-11.13-9.084-12.797-25.473-3.71-36.61 5.146-6.311 12.628-9.573 20.174-9.573 5.783 0 11.603 1.92 16.445 5.856l78.715 64.215v-430.785c0-14.37 11.648-26.021 26.018-26.021h278.057c14.372 0 26.023 11.653 26.023 26.021v201.886h121.416v-201.886c0-14.37 11.653-26.021 26.023-26.021h278.057c14.372 0 26.021 11.653 26.021 26.021v437.194l78.815-63.662c4.813-3.886 10.6-5.781 16.342-5.781 7.582 0 15.119 3.304 20.251 9.669 9.039 11.183 7.295 27.566-3.884 36.596zM263.393 707.808h47.151v-62.018l-47.151-38.164v100.183zM850.767 462.306v-445.742h-226.014v201.888c0 14.37-11.653 26.018-26.021 26.018h-173.463c-14.372 0-26.018-11.653-26.018-26.018v-201.888h-226.016v445.742l101.162 84.014c0 0 236.868 194.084 238.379 196.669l337.991-280.683z" />
<glyph unicode="&#xe93a;" glyph-name="commerce-1" d="M307.407 221.773h564.225c63.978 0 116.17 52.192 116.17 116.17v237.391c0 0.21 0 0.631 0 0.842 0 0.631 0 1.052 0 1.684 0 0.421 0 0.842-0.21 1.263 0 0.421-0.21 1.052-0.21 1.473s-0.21 0.842-0.21 1.263c-0.21 0.421-0.21 0.842-0.421 1.473-0.21 0.421-0.21 0.842-0.421 1.263s-0.21 0.842-0.421 1.263c-0.21 0.421-0.421 0.842-0.631 1.473-0.21 0.421-0.421 0.842-0.631 1.052-0.21 0.421-0.421 0.842-0.631 1.263s-0.421 0.631-0.631 1.052c-0.21 0.421-0.631 0.842-0.842 1.263s-0.421 0.631-0.842 1.052c-0.21 0.421-0.631 0.631-0.842 1.052s-0.631 0.631-0.842 1.052-0.631 0.631-0.842 0.842c-0.421 0.421-0.631 0.631-1.052 1.052-0.421 0.21-0.631 0.631-1.052 0.842s-0.842 0.631-1.263 0.842c-0.421 0.21-0.631 0.421-1.052 0.631s-0.842 0.421-1.263 0.842c-0.421 0.21-0.842 0.421-1.263 0.631s-0.842 0.421-1.263 0.631-0.842 0.421-1.263 0.631-0.842 0.21-1.263 0.421c-0.421 0.21-1.052 0.421-1.473 0.421s-0.842 0.21-1.052 0.21-1.052 0.21-1.684 0.21c-0.21 0-0.421 0.21-0.842 0.21l-715.12 98.703v99.755c0 1.052 0 2.105-0.21 2.946 0 0.21 0 0.421-0.21 0.842 0 0.631-0.21 1.263-0.21 1.894-0.21 0.631-0.21 1.052-0.421 1.684 0 0.421-0.21 0.631-0.21 1.052-0.21 0.631-0.421 1.263-0.631 1.894 0 0.21-0.21 0.631-0.21 0.842-0.21 0.631-0.421 1.052-0.842 1.684-0.21 0.21-0.21 0.631-0.421 0.842-0.21 0.421-0.421 0.842-0.842 1.263-0.21 0.421-0.421 0.631-0.631 1.052s-0.421 0.631-0.631 1.052-0.631 0.842-0.842 1.263c-0.21 0.21-0.421 0.421-0.631 0.631-0.421 0.421-0.842 0.842-1.263 1.263-0.21 0.21-0.421 0.421-0.631 0.631-0.421 0.421-0.842 0.842-1.473 1.263-0.21 0.21-0.631 0.421-0.842 0.631-0.421 0.421-0.842 0.631-1.263 1.052-0.631 0.421-1.263 0.842-1.684 1.052-0.21 0.21-0.421 0.21-0.631 0.421-0.842 0.421-1.894 0.842-2.736 1.263l-155.104 65.24c-14.521 6.103-31.147-0.631-37.25-15.153s0.631-31.147 15.153-37.25l137.636-58.085v-622.521c0-58.927 44.195-107.752 101.228-115.118-10.312-17.257-16.415-37.461-16.415-58.927 0-63.346 51.561-114.697 114.697-114.697s114.697 51.561 114.697 114.697c0 21.045-5.682 41.038-15.784 57.875h255.49c-10.102-17.047-15.784-36.829-15.784-57.875 0-63.346 51.561-114.697 114.697-114.697s114.697 51.561 114.697 114.697-51.561 114.697-114.697 114.697h-536.656c-32.831 0-59.348 26.728-59.348 59.348v77.026c17.257-10.102 37.671-15.994 59.348-15.994zM448.831-13.093c0-31.989-26.096-57.875-57.875-57.875s-57.875 26.096-57.875 57.875 26.096 57.875 57.875 57.875 57.875-25.886 57.875-57.875zM902.148-13.093c0-31.989-26.096-57.875-57.875-57.875s-57.875 26.096-57.875 57.875 26.096 57.875 57.875 57.875 57.875-25.886 57.875-57.875zM871.632 278.596h-564.225c-32.831 0-59.348 26.728-59.348 59.348v307.051l682.921-94.073v-212.768c0-33.041-26.728-59.558-59.348-59.558z" />
<glyph unicode="&#xe93b;" glyph-name="time" d="M972.8 827.733h-119.467v51.2c0 9.438-7.629 17.067-17.067 17.067h-119.467c-9.438 0-17.067-7.629-17.067-17.067v-51.2h-375.467v51.2c0 9.438-7.629 17.067-17.067 17.067h-119.467c-9.438 0-17.067-7.629-17.067-17.067v-51.2h-119.467c-9.438 0-17.067-7.629-17.067-17.067v-921.6c0-9.438 7.629-17.067 17.067-17.067h921.6c9.438 0 17.067 7.629 17.067 17.067v921.6c0 9.438-7.629 17.067-17.067 17.067zM733.867 861.867h85.333v-102.4h-85.333v102.4zM204.8 861.867h85.333v-102.4h-85.333v102.4zM68.267 793.6h102.4v-51.2c0-9.438 7.629-17.067 17.067-17.067h119.467c9.438 0 17.067 7.629 17.067 17.067v51.2h375.467v-51.2c0-9.438 7.629-17.067 17.067-17.067h119.467c9.438 0 17.067 7.629 17.067 17.067v51.2h102.4v-153.6h-887.467v153.6zM68.267-93.867v699.733h887.467v-699.733h-887.467zM648.533 503.467h-460.8v-494.933h648.533v494.933h-187.733zM529.067 469.333h119.467v-119.467h-119.467v119.467zM648.533 196.267h-119.467v119.467h119.467v-119.467zM375.467 315.733h119.467v-119.467h-119.467v119.467zM375.467 469.333h119.467v-119.467h-119.467v119.467zM221.867 469.333h119.467v-119.467h-119.467v119.467zM221.867 315.733h119.467v-119.467h-119.467v119.467zM341.333 42.667h-119.467v119.467h119.467v-119.467zM494.933 42.667h-119.467v119.467h119.467v-119.467zM648.533 42.667h-119.467v119.467h119.467v-119.467zM802.133 42.667h-119.467v119.467h119.467v-119.467zM802.133 196.267h-119.467v119.467h119.467v-119.467zM802.133 469.333v-119.467h-119.467v119.467h119.467z" />
<glyph unicode="&#xe93c;" glyph-name="typography" d="M352 448h-27.128c20.624 35.784 46.44 72.16 68.184 97.752 34.312 40.376 29.504 100.936-10.872 135.28-18.056 15.408-40.184 22.968-62.184 22.968-27.128 0-54-11.408-73-33.656-25.248-29.528-151-158.344-151-318.344v-160c0-70.688 57.312-128 128-128h128c70.688 0 128 57.312 128 128v128c0 70.688-57.312 128-128 128zM416 192c0-35.28-28.688-64-64-64h-128c-35.248 0-64 28.72-64 64v160c0 123.592 96 231.904 127.504 267.504l8.184 9.28c8.312 9.744 18.816 11.216 24.312 11.216 5.312 0 13.248-1.344 20.752-7.72 13.376-11.408 15-31.624 3.504-45.096-25.376-29.904-53.376-69.968-74.816-107.216-11.44-19.816-11.44-44.184 0.064-64 11.368-19.784 32.496-31.968 55.368-31.968h27.128c35.312 0 64-28.72 64-64v-128zM800 448h-27.128c20.624 35.784 46.44 72.16 68.184 97.752 34.312 40.376 29.504 100.936-10.872 135.28-18.056 15.408-40.184 22.968-62.248 22.968-27.064 0-54-11.408-72.936-33.656-25.248-29.528-151-158.344-151-318.344v-160c0-70.688 57.312-128 128-128h128c70.688 0 128 57.312 128 128v128c0 70.688-57.312 128-128 128zM864 192c0-35.28-28.688-64-64-64h-128c-35.312 0-64 28.72-64 64v160c0 123.688 96 232 127.56 267.56l8.128 9.248c8.312 9.72 18.752 11.192 24.248 11.192 5.376 0 13.312-1.344 20.816-7.72 13.376-11.408 15-31.624 3.56-45.096-25.44-29.904-53.44-69.968-74.872-107.216-11.44-19.816-11.44-44.184 0-64 11.44-19.784 32.56-31.968 55.44-31.968h27.12c35.312 0 64-28.72 64-64v-128z" />
<glyph unicode="&#xe93d;" glyph-name="symbols" d="M954.305 35.978h-884.609c-38.428 0-69.693 31.264-69.693 69.693v438.126l510.592-228.594 513.405 228.548v-438.080c-0.003-38.428-31.265-69.693-69.695-69.693zM26.143 503.452v-397.78c0-24.017 19.537-43.552 43.552-43.552h884.609c24.015 0 43.552 19.537 43.552 43.552v397.826l-487.291-216.924-484.423 216.878zM510.241 355.683l-510.241 228.859v77.772c0 38.436 31.264 69.707 69.694 69.707h884.611c18.619 0 36.124-7.25 49.283-20.414 13.163-13.164 20.411-30.67 20.41-49.293l-0.198-76.149-513.558-230.482zM26.141 601.468l484.097-217.134 487.463 218.774 0.153 59.243c0 11.608-4.53 22.549-12.753 30.776-8.226 8.226-19.162 12.756-30.797 12.756h-884.609c-24.015 0-43.552-19.544-43.552-43.566l-0.001-60.849z" />
<glyph unicode="&#xe93e;" glyph-name="signs" d="M511.785 896c-226.268 0-410.459-184.191-410.459-410.459 0-25.761 2.361-51.737 7.299-77.068 0.215-1.503 1.073-6.011 2.791-13.739 6.226-27.693 15.457-54.957 27.478-80.932 44.223-104.117 141.471-264.050 354.858-435.361 5.367-4.294 11.807-6.44 18.247-6.44s12.881 2.147 18.247 6.44c213.172 171.311 310.635 331.244 354.858 435.361 12.022 25.976 21.253 53.025 27.478 80.932 1.717 7.728 2.576 12.236 2.791 13.739 4.723 25.332 7.299 51.307 7.299 77.068-0.429 226.268-184.621 410.459-410.888 410.459zM857.842 418.563c0-0.429-0.215-0.859-0.215-1.288-0.215-1.073-0.859-4.294-1.932-9.231 0-0.215 0-0.215 0-0.429-5.367-24.044-13.31-47.443-23.829-69.984-0.215-0.215-0.215-0.644-0.429-0.859-40.144-95.101-128.161-240.221-319.651-398.437-191.49 158.216-279.507 303.336-319.651 398.437-0.215 0.215-0.215 0.644-0.429 0.859-10.304 22.326-18.247 45.94-23.829 69.984 0 0.215 0 0.215 0 0.429-1.288 4.938-1.717 8.158-1.932 9.231 0 0.429-0.215 0.859-0.215 1.503-4.294 22.112-6.44 44.438-6.44 66.979 0 194.281 158.216 352.496 352.496 352.496s352.496-158.216 352.496-352.496c0-22.756-2.147-45.296-6.44-67.193zM511.785 741.649c-143.618 0-260.616-116.998-260.616-260.616s116.998-260.616 260.616-260.616 260.616 116.998 260.616 260.616-116.998 260.616-260.616 260.616zM511.785 278.38c-111.846 0-202.653 91.022-202.653 202.653s91.022 202.653 202.653 202.653 202.653-91.022 202.653-202.653-90.808-202.653-202.653-202.653z" />
<glyph unicode="&#xe93f;" glyph-name="technology3" d="M985.114 94.88l-200.646 200.644c-23.952 23.95-62.916 23.95-86.87 0l-52.176-52.176c-16.348-16.348-21.516-39.69-15.546-60.482l-19.686-19.686c-0.006-0.006-0.010-0.010-0.016-0.016-13.98-13.996-101.046 7.482-206.29 112.726-105.228 105.226-126.712 192.278-112.732 206.284 0 0.004 0.004 0.004 0.004 0.004l19.704 19.702c5.562-1.598 11.302-2.414 17.046-2.414 15.73 0 31.458 5.986 43.436 17.96l52.176 52.176c23.95 23.95 23.95 62.916 0 86.868l-200.646 200.648c-11.6 11.6-27.026 17.988-43.432 17.988-16.41 0-31.83-6.392-43.432-17.988l-52.18-52.18c-16.348-16.348-21.516-39.692-15.546-60.482 0 0-16.688-16.848-17.518-17.912-55.506-61.698-65.92-158.836-29.122-274.974 36.034-113.714 113.714-234.176 218.734-339.19 105.016-105.016 225.478-182.696 339.192-218.734 45.68-14.474 88.414-21.646 127.22-21.646 63.626 0 116.674 19.296 154.7 57.32l10.948 10.948c5.48-1.576 11.204-2.426 17.064-2.426 16.41 0 31.834 6.392 43.432 17.988l52.18 52.18c23.95 23.95 23.95 62.918 0.002 86.87zM179.44 813.686l200.648-200.65-52.148-52.204c0 0-0.010 0.010-0.028 0.028l-200.65 200.646 52.178 52.18zM818.058-27.246c-0.004-0.004-0.006-0.006-0.010-0.010-44.188-44.182-122.292-51.48-219.922-20.54-104.504 33.116-216.13 105.428-314.312 203.612-98.186 98.184-170.498 209.806-203.612 314.312-30.94 97.634-23.642 175.74 20.55 219.934l5.544 5.544 155.714-155.712-14.282-14.282c-0.010-0.010-0.018-0.022-0.030-0.034-59.17-59.244 11.926-192.294 112.756-293.124 75.468-75.468 168.986-134.28 236.102-134.28 22.568 0 42.152 6.65 57.056 21.556 0.006 0.006 0.010 0.010 0.016 0.016l14.266 14.266 155.714-155.712-5.55-5.546zM889.504-0.736l-200.648 200.648 52.176 52.176 200.648-200.644c0 0-52.158-52.198-52.176-52.18zM777.636 649.632c-58.418 58.418-136.084 90.588-218.688 90.586-16.962 0-30.712-13.75-30.712-30.712s13.752-30.712 30.712-30.712c66.2 0.004 128.438-25.78 175.256-72.594 46.812-46.812 72.59-109.050 72.588-175.248 0-16.962 13.75-30.716 30.712-30.716 16.96 0 30.712 13.75 30.712 30.708 0.002 82.608-32.17 160.27-90.58 218.688zM887.79 759.786c-87.846 87.842-204.634 136.218-328.854 136.214-16.962 0-30.712-13.752-30.712-30.712 0-16.962 13.752-30.712 30.712-30.712 107.814 0.004 209.176-41.984 285.418-118.222 76.236-76.236 118.222-177.598 118.22-285.412 0-16.962 13.75-30.712 30.712-30.712 16.96 0 30.712 13.75 30.712 30.708 0.004 124.224-48.372 241.008-136.208 328.848zM667.474 539.48c-29.412 29.412-66.93 44.954-108.512 44.954 0 0-0.010 0-0.012 0-16.962-0.004-30.712-13.752-30.708-30.716 0.004-16.962 13.756-30.712 30.716-30.708 0.004 0 0.006 0 0.010 0 25.288 0 47.186-9.072 65.078-26.962 17.638-17.64 26.962-40.15 26.958-65.088-0.004-16.962 13.75-30.712 30.708-30.716h0.004c16.962 0 30.708 13.75 30.712 30.708 0.002 41.584-15.54 79.112-44.954 108.528z" />
<glyph unicode="&#xe940;" glyph-name="vehicle" d="M874 896h-724c-82.71 0-150-67.29-150-150v-724c0-82.71 67.29-150 150-150h724c82.71 0 150 67.29 150 150v724c0 82.71-67.29 150-150 150zM964 22c0-49.626-40.374-90-90-90h-724c-49.626 0-90 40.374-90 90v724c0 49.626 40.374 90 90 90h724c49.626 0 90-40.374 90-90v-724zM572 714h-240c-16.568 0-30-13.432-30-30v-602c0-16.568 13.432-30 30-30h120c16.568 0 30 13.432 30 30v212h90c115.794 0 210 94.206 210 210s-94.206 210-210 210zM572 354h-120c-16.568 0-30-13.432-30-30v-212h-60v542h210c82.71 0 150-67.29 150-150s-67.29-150-150-150zM572 594h-120c-16.568 0-30-13.432-30-30v-120c0-16.568 13.432-30 30-30h120c49.626 0 90 40.374 90 90s-40.374 90-90 90zM572 474h-90v60h90c16.542 0 30-13.458 30-30s-13.458-30-30-30z" />
<glyph unicode="&#xe941;" glyph-name="buildings" d="M479.999 576.001h64c17.674 0 32 14.326 32 32s-14.326 32-32 32h-64c-17.674 0-32-14.326-32-32 0-17.672 14.328-32 32-32zM671.999 640c-17.674 0-32-14.326-32-32s14.326-32 32-32c17.674 0 32 14.326 32 32s-14.326 32-32 32zM351.999 576.001c17.674 0 32 14.326 32 32s-14.326 32-32 32c-17.674 0-32-14.326-32-32 0-17.672 14.328-32 32-32zM1005.524 637.001l-479.993 223.998c-8.562 4-18.5 4-27.062 0l-479.993-223.998c-16.016-7.468-22.938-26.516-15.468-42.53 7.484-16.016 26.528-22.984 42.528-15.468l18.464 8.616v-651.607c0-17.672 14.328-32 32-32s32 14.328 32 32v511.989h767.999v-511.989c0-17.672 14.328-32 32-32s32 14.328 32 32v651.607l18.466-8.618c4.376-2.046 8.982-3 13.514-3 12.046 0 23.576 6.828 29.014 18.468 7.47 16.018 0.546 35.064-15.468 42.532zM895.998 608.003v-96h-767.999v96c0 3.074-0.94 5.852-1.748 8.668l385.747 180.016 385.747-180.018c-0.81-2.816-1.748-5.592-1.748-8.666zM479.999 64.004c0 17.674-14.326 32-32 32h-192c-17.674 0-32-14.326-32-32v-128c0-17.672 14.326-32 32-32h192c17.674 0 32 14.326 32 32v128zM415.999-31.998h-128v64h128v-64zM799.998 64.004c0 17.674-14.326 32-32 32h-192c-17.674 0-32-14.326-32-32v-128c0-17.672 14.326-32 32-32h192c17.672 0 32 14.326 32 32v128zM735.999-31.998h-128v64h128v-64zM479.999 320.003c0 17.674-14.326 32-32 32h-192c-17.674 0-32-14.326-32-32v-128c0-17.672 14.326-32 32-32h192c17.674 0 32 14.326 32 32v128zM415.999 224.001h-128v64h128v-64zM799.998 320.003c0 17.674-14.326 32-32 32h-192c-17.674 0-32-14.326-32-32v-128c0-17.672 14.326-32 32-32h192c17.672 0 32 14.326 32 32v128zM735.999 224.001h-128v64h128v-64z" />
<glyph unicode="&#xe942;" glyph-name="case" d="M944.071 684.382h-215.871v38.627c0 45.552-37.055 82.613-82.61 82.613h-267.18c-45.549 0-82.61-37.058-82.61-82.613v-38.627h-215.868c-44.075 0-79.932-35.855-79.932-79.927v-562.148c0-44.072 35.857-79.929 79.932-79.929h864.135c44.075 0 79.932 35.857 79.932 79.929v562.148c0.003 44.069-35.852 79.927-79.929 79.927zM365.608 723.009c0 7.061 5.746 12.808 12.805 12.808h267.18c7.059 0 12.805-5.746 12.805-12.808v-38.627h-292.79v38.627zM79.935 614.577h864.135c5.584 0 10.127-4.54 10.127-10.122v-183.163c-108.164-40.124-271.315-63.824-442.491-63.824-170.799 0-333.726 23.619-441.902 63.609v183.378c0.003 5.582 4.546 10.122 10.13 10.122zM944.071 32.183h-864.135c-5.584 0-10.127 4.54-10.127 10.125v304.816c99.006-32.66 229.175-53.074 371.033-58.189-0.008-0.405-0.059-0.796-0.059-1.206v-15.393c0-28.857 23.477-52.334 52.337-52.334h37.77c28.86 0 52.337 23.477 52.337 52.334v15.393c0 0.41-0.056 0.813-0.059 1.223 141.947 5.16 272.097 25.632 371.036 58.357v-305.003c-0.006-5.582-4.548-10.122-10.133-10.122z" />
<glyph unicode="&#xe943;" glyph-name="graphic" d="M939.857-12.105h-823.963v823.963c0 18.257-14.288 32.546-32.546 32.546s-32.546-14.288-32.546-32.546v-856.509c0-18.257 14.288-32.546 32.546-32.546h856.509c18.257 0 32.546 14.288 32.546 32.546s-14.288 32.546-32.546 32.546zM431.033 113.315v468.341c0 18.257-14.288 32.546-32.546 32.546s-32.546-14.288-32.546-32.546v-468.341c0-18.257 14.288-32.546 32.546-32.546s32.546 14.288 32.546 32.546zM273.86 113.315v468.341c0 18.257-14.288 32.546-32.546 32.546s-32.546-14.288-32.546-32.546v-468.341c0-18.257 14.288-32.546 32.546-32.546s32.546 14.288 32.546 32.546zM745.377 113.315v468.341c0 18.257-14.288 32.546-32.546 32.546s-32.546-14.288-32.546-32.546v-468.341c0-18.257 14.288-32.546 32.546-32.546s32.546 14.288 32.546 32.546zM902.549 113.315v234.171c0 18.257-14.288 32.546-32.546 32.546s-32.546-14.288-32.546-32.546v-234.171c0-18.257 14.288-32.546 32.546-32.546s32.546 14.288 32.546 32.546zM588.205 113.315v234.171c0 18.257-14.288 32.546-32.546 32.546s-32.546-14.288-32.546-32.546v-234.171c0-18.257 14.288-32.546 32.546-32.546s32.546 14.288 32.546 32.546z" />
<glyph unicode="&#xe944;" glyph-name="commerce" d="M84.936 106.171h38.102c-26.195-46.834-19.845-107.163 19.845-146.853 23.020-23.020 53.978-35.721 87.318-35.721s63.504 12.701 87.318 35.721c23.020 23.020 35.721 53.978 35.721 87.318 0 21.433-5.557 41.278-15.876 59.535h153.203c-26.195-46.834-19.845-107.163 19.845-146.853 23.020-23.020 53.978-35.721 87.318-35.721s63.504 12.701 87.318 35.721c23.020 23.020 35.721 53.978 35.721 87.318 0 21.433-5.557 41.278-15.876 59.535h41.278c18.257 0 32.546 14.288 32.546 32.546s-14.288 32.546-32.546 32.546h-628.688v63.504h714.419c14.288 0 26.989 9.526 30.958 23.814l107.957 394.518c2.381 9.526 0.794 19.845-5.557 27.783s-15.876 12.701-25.402 12.701h-822.375v118.276c0 18.257-14.288 32.546-32.546 32.546s-32.546-14.288-32.546-32.546v-672.347c0-19.051 14.288-33.34 32.546-33.34zM555.659 87.913c11.113 11.113 25.402 17.464 41.278 17.464s30.164-6.35 41.278-17.464c11.113-11.113 17.464-25.402 17.464-41.278s-6.35-30.164-17.464-41.278c-22.226-22.226-60.329-22.226-82.555 0-23.020 23.020-23.020 59.535 0 82.555zM188.924 87.913c11.113 11.113 25.402 17.464 41.278 17.464s30.164-6.35 41.278-17.464c11.113-11.113 17.464-25.402 17.464-41.278s-6.35-30.164-17.464-41.278c-22.226-22.226-60.329-22.226-82.555 0-23.020 23.020-23.020 59.535 0 82.555zM117.482 629.284h779.51l-90.493-330.22h-689.017v330.22z" />
<glyph unicode="&#xe945;" glyph-name="transport-1" d="M67.13 719.389c-19.108 57.914 12.46 120.584 70.381 139.695s120.588-12.467 139.695-70.381l217.344-658.73c-20.254 5.348-41.795 6.326-63.299 2.394l-210.417 637.735c-8.855 26.838-37.886 41.464-64.723 32.609-26.838-8.855-41.464-37.886-32.609-64.723 5.135-15.566-3.32-32.351-18.887-37.486-15.566-5.135-32.35 3.321-37.486 18.887zM923.461 202.638l-356.104-117.495c12.638-14.348 22.655-31.404 29.017-50.678 0.226-0.688 0.353-1.382 0.569-2.071l345.119 113.871c15.566 5.135 24.022 21.921 18.887 37.485-5.137 15.569-21.924 24.025-37.488 18.889zM568.189 25.158c20.177-61.15-13.041-127.078-74.19-147.255-61.15-20.177-127.078 13.039-147.255 74.19s13.041 127.078 74.19 147.255c61.15 20.179 127.080-13.039 147.255-74.19zM512.827 6.893c-10.088 30.574-43.050 47.181-73.627 37.093-30.574-10.086-47.183-43.051-37.095-73.626s43.051-47.183 73.627-37.097c30.574 10.089 47.183 43.055 37.095 73.629zM833.466 649.462l120.899-366.426c2.568-7.782-1.66-16.175-9.444-18.743l-380.519-125.549c-7.782-2.568-16.175 1.66-18.742 9.444l-120.899 366.426c-2.568 7.784 1.66 16.175 9.444 18.743l380.517 125.55c7.784 2.565 16.175-1.661 18.743-9.445zM783.131 436.608l-129.569 71.287-61.681-134.39 40.838-18.795 26.669 58.139 48.156-145.957 46.088 15.206-48.15 145.935 56.014-30.832 21.634 39.407zM670.070 655.213l-77.295 234.268c-1.641 4.976-7.007 7.68-11.983 6.037l-66.277-21.867-0.325-0.596-0.556 0.305-34.968-11.538 28.796-87.272-39.442-13.014-28.794 87.272-34.98-11.542-0.264-0.576-0.619 0.284-65.847-21.727c-4.978-1.641-7.678-7.007-6.037-11.983l77.297-234.27c1.641-4.976 7.007-7.68 11.983-6.037l243.28 80.27c4.971 1.643 7.675 7.009 6.032 11.985z" />
<glyph unicode="&#xe946;" glyph-name="transport2" d="M1013.844 397.338l-59.082 34.306-33.754 144.218c-8.986 38.386-42.794 65.194-82.214 65.194h-169.782v26.934c0 11.266-9.134 20.398-20.398 20.398h-628.216c-11.264 0-20.398-9.132-20.398-20.398v-486.222c0-11.266 9.134-20.398 20.398-20.398h65.558c9.48-46.586 50.76-81.754 100.102-81.754s90.624 35.168 100.104 81.754l412.952-0.002c9.48-46.586 50.76-81.754 100.102-81.754s90.624 35.168 100.104 81.754h104.284c11.264 0 20.398 9.132 20.398 20.398v197.932c-0.002 7.268-3.87 13.988-10.158 17.64zM186.058 120.408c-33.83 0-61.354 27.526-61.354 61.356s27.524 61.356 61.354 61.356c33.832 0 61.356-27.524 61.356-61.356s-27.524-61.356-61.356-61.356zM628.218 275.312h-183.988c-11.264 0-20.398-9.132-20.398-20.398s9.134-20.398 20.398-20.398h183.988v-32.352h-342.056c-9.48 46.586-50.762 81.754-100.104 81.754s-90.622-35.166-100.102-81.754h-45.16v105.5h587.422v-32.352zM628.218 620.656v-272.196h-587.422v299.13h587.422v-26.934zM787.342 600.256h51.456c20.374 0.002 37.848-13.854 42.488-33.692l29.898-127.744h-123.84v161.436zM799.216 120.408c-32.456 0-59.092 25.338-61.204 57.27 0.27 1.32 0.41 2.686 0.41 4.086s-0.142 2.766-0.41 4.086c2.112 31.932 28.748 57.27 61.204 57.27 33.832 0 61.356-27.524 61.356-61.356s-27.524-61.356-61.356-61.356zM983.204 298.976h-38.806v21.594h38.806v-21.594zM983.204 361.366h-59.204c-11.264 0-20.398-9.132-20.398-20.398v-62.39c0-11.266 9.134-20.398 20.398-20.398h59.204v-56.016h-83.884c-9.48 46.586-50.762 81.754-100.104 81.754s-90.622-35.166-100.102-81.754h-30.1v398.094h77.532v-181.836c0-11.266 9.134-20.398 20.398-20.398h164.47l51.788-30.074v-6.584zM375.386 275.312h-17.212c-11.264 0-20.398-9.132-20.398-20.398s9.132-20.398 20.398-20.398h17.212c11.264 0 20.398 9.132 20.398 20.398s-9.134 20.398-20.398 20.398z" />
<glyph unicode="&#xe947;" glyph-name="boxes" d="M891.892 722.604c-5.757 8.212-15.509 11.912-25.052 10.495-0.363 0.086-0.726 0.242-1.089 0.294l-390.827 57.366c-4.27 0.64-8.627 0.173-12.69-1.314l-313.025-114.733c-0.138-0.052-0.259-0.138-0.398-0.19-0.328-0.138-0.64-0.346-0.985-0.467-1.712-0.761-3.302-1.66-4.772-2.714-0.45-0.328-0.882-0.657-1.331-1.020-1.608-1.314-3.078-2.749-4.305-4.392-0.069-0.104-0.173-0.156-0.242-0.259l-132.178-180.813c-5.066-6.933-6.38-15.958-3.492-24.050 2.887-8.109 9.613-14.229 17.946-16.373l114.698-29.617v-283.564c0-11.394 7.452-21.473 18.361-24.81l419.96-128.322c0.138-0.069 0.294-0.017 0.432-0.086 2.248-0.622 4.599-1.020 6.95-1.037 0.052 0 0.121-0.035 0.19-0.035v0h0.017c2.472 0 4.893 0.45 7.313 1.158 0.761 0.242 1.47 0.571 2.248 0.899 1.020 0.38 2.023 0.657 3.026 1.176l301.354 167.24c8.247 4.582 13.347 13.261 13.347 22.684v283.512l101.938 48.929c6.864 3.285 11.93 9.457 13.866 16.823 1.919 7.383 0.519 15.215-3.856 21.456l-127.406 181.764zM473.903 738.476l305.054-44.78-202.355-94.089-320.442 59.043 217.743 79.825zM169.454 621.894l367.175-67.671-107.921-161.898-359.274 92.758 100.019 136.811zM186.017 150.446v250.99l247.55-63.919c2.161-0.536 4.322-0.83 6.484-0.83 8.524 0 16.684 4.219 21.577 11.549l92.481 138.713v-448.971l-368.092 112.468zM855.463 185.405l-249.504-138.436v409.638l45.558-96.803c2.956-6.241 8.282-11.083 14.765-13.365 2.818-1.037 5.757-1.504 8.679-1.504 3.856 0 7.676 0.864 11.221 2.524l169.246 81.226 0.035-243.279zM687.341 405.534l-72.737 154.533 247.273 114.975 97.409-138.955-271.945-130.552z" />
</font>
</defs>
</svg>
